<svg width="24" height="24" viewBox="0 0 24 24" fill="none" xmlns="http://www.w3.org/2000/svg">
<path d="M22.3058 12.564C21.4161 12.379 20.2108 12.2812 18.8203 12.2812C18.2464 12.2812 17.7047 12.2982 17.2031 12.3307V1.28906C17.2031 0.578297 16.6248 0 15.9141 0H1.28906C0.542109 0 0 0.621 0 1.47656V20.9297C0 21.4391 0.563109 22.0312 1.28906 22.0312H13.6406V22.5703C13.6406 23.365 14.9157 23.6301 15.3348 23.7172C16.2245 23.9022 17.4298 24 18.8203 24C20.2108 24 21.4161 23.9022 22.3058 23.7172C22.7249 23.6301 24 23.365 24 22.5703V13.7109C24 12.9162 22.7249 12.6511 22.3058 12.564ZM23.2969 18.1384C23.2896 18.1535 23.1433 18.4118 22.0452 18.6227C21.2118 18.7827 20.0967 18.8672 18.8203 18.8672C17.544 18.8672 16.4288 18.7827 15.5954 18.6227C14.4703 18.4067 14.3444 18.1406 14.3438 18.1406V16.7706C14.7117 16.943 15.1277 17.0296 15.3348 17.0727C16.2245 17.2576 17.4298 17.3554 18.8203 17.3554C20.2108 17.3554 21.4161 17.2576 22.3058 17.0727C22.5129 17.0296 22.9289 16.943 23.2969 16.7706V18.1384ZM9.04688 18.2109C8.85267 18.2109 8.69531 18.3683 8.69531 18.5625V19.4531H3.35156C3.16833 19.4531 3.04688 19.303 3.04688 19.2422V15.75H8.69531V16.9219C8.69531 17.1161 8.85267 17.2734 9.04688 17.2734C9.24108 17.2734 9.39844 17.1161 9.39844 16.9219V15.75H13.6406V19.4531H9.39844V18.5625C9.39844 18.3683 9.24108 18.2109 9.04688 18.2109ZM15.0469 12.6282C14.5078 12.7604 13.6406 13.0554 13.6406 13.7109V15.0469H9.39844V11.3438H14.7422C14.9102 11.3438 15.0469 11.4804 15.0469 11.6484V12.6282ZM8.69531 15.0469H3.04688V11.7422C3.04688 11.5039 3.16931 11.3438 3.35156 11.3438H8.69531V15.0469ZM23.2969 15.9235C23.2896 15.9386 23.1433 16.197 22.0452 16.4078C21.2118 16.5678 20.0967 16.6524 18.8203 16.6524C17.544 16.6524 16.4288 16.5678 15.5954 16.4078C14.4703 16.1918 14.3444 15.9258 14.3438 15.9258V14.5558C14.7117 14.7281 15.1277 14.8148 15.3348 14.8578C16.2245 15.0428 17.4298 15.1406 18.8203 15.1406C20.2108 15.1406 21.4161 15.0428 22.3058 14.8579C22.5129 14.8148 22.9289 14.7282 23.2969 14.5558V15.9235ZM22.0452 13.2289C23.1056 13.4325 23.2785 13.6806 23.2957 13.7109C23.2785 13.7413 23.1056 13.9894 22.0452 14.193C21.2118 14.3529 20.0967 14.4375 18.8203 14.4375C17.544 14.4375 16.4288 14.3529 15.5954 14.193C14.535 13.9894 14.3621 13.7413 14.3449 13.7109C14.3621 13.6806 14.535 13.4325 15.5954 13.2289C16.4288 13.0689 17.544 12.9844 18.8203 12.9844C20.0967 12.9844 21.2118 13.0689 22.0452 13.2289ZM1.28906 21.3281C0.950531 21.3281 0.703125 21.0485 0.703125 20.9297V9.46875H12.2812C12.4755 9.46875 12.6328 9.31139 12.6328 9.11719C12.6328 8.92298 12.4755 8.76562 12.2812 8.76562H0.703125V1.47656C0.703125 1.00673 0.933094 0.703125 1.28906 0.703125H15.9141C16.2372 0.703125 16.5 0.965953 16.5 1.28906V8.76562H13.9219C13.7277 8.76562 13.5703 8.92298 13.5703 9.11719C13.5703 9.31139 13.7277 9.46875 13.9219 9.46875H16.5V12.3894C16.2342 12.4171 15.9839 12.4501 15.75 12.488V11.6484C15.75 11.0927 15.2979 10.6406 14.7422 10.6406H3.35156C2.77702 10.6406 2.34375 11.1142 2.34375 11.7422V19.2422C2.34375 19.7291 2.8147 20.1562 3.35156 20.1562H13.6406V21.3281H1.28906ZM22.0452 23.0523C21.2118 23.2123 20.0967 23.2969 18.8203 23.2969C17.544 23.2969 16.4288 23.2123 15.5954 23.0523C14.4703 22.8364 14.3444 22.5703 14.3438 22.5703V21.2003C14.7117 21.3727 15.1277 21.4593 15.3348 21.5024C16.2245 21.6873 17.4298 21.7851 18.8203 21.7851C19.4903 21.7851 20.1249 21.7619 20.7066 21.7161C20.9001 21.7008 21.0447 21.5316 21.0294 21.338C21.0142 21.1445 20.8445 20.9999 20.6514 21.0151C20.088 21.0595 19.472 21.082 18.8203 21.082C17.544 21.082 16.4288 20.9974 15.5954 20.8374C14.4703 20.6215 14.3444 20.3555 14.3438 20.3555V18.9855C14.7117 19.1578 15.1277 19.2445 15.3348 19.2875C16.2245 19.4725 17.4298 19.5703 18.8203 19.5703C20.2108 19.5703 21.4161 19.4725 22.3058 19.2875C22.5129 19.2445 22.9289 19.1578 23.2969 18.9855V20.3532C23.2897 20.3682 23.1602 20.597 22.2297 20.7997C22.04 20.8411 21.9197 21.0284 21.961 21.2181C22.0015 21.4092 22.1945 21.5286 22.3794 21.4867C22.5718 21.4448 22.9526 21.3616 23.2969 21.2006V22.568C23.2896 22.5832 23.1433 22.8415 22.0452 23.0523Z" fill="white"/>
<path d="M15.7969 6.58594V2.88281C15.7969 2.32711 15.3448 1.875 14.7891 1.875H7.03125C6.83705 1.875 6.67969 2.03236 6.67969 2.22656C6.67969 2.42077 6.83705 2.57812 7.03125 2.57812H14.7891C14.9571 2.57812 15.0938 2.71481 15.0938 2.88281V6.58594C15.0938 6.75394 14.9571 6.89062 14.7891 6.89062H3.35156C3.18356 6.89062 3.04688 6.75394 3.04688 6.58594V2.88281C3.04688 2.71481 3.18356 2.57812 3.35156 2.57812H5.39062C5.58483 2.57812 5.74219 2.42077 5.74219 2.22656C5.74219 2.03236 5.58483 1.875 5.39062 1.875H3.35156C2.79586 1.875 2.34375 2.32711 2.34375 2.88281V6.58594C2.34375 7.14164 2.79586 7.59375 3.35156 7.59375H14.7891C15.3448 7.59375 15.7969 7.14164 15.7969 6.58594Z" fill="white"/>
<path d="M7.38281 17.25H4.85156C4.65736 17.25 4.5 17.4074 4.5 17.6016C4.5 17.7958 4.65736 17.9531 4.85156 17.9531H7.38281C7.57702 17.9531 7.73438 17.7958 7.73438 17.6016C7.73438 17.4074 7.57702 17.25 7.38281 17.25Z" fill="white"/>
<path d="M5.08594 13.5469H5.76562V14.2266C5.76562 14.4208 5.92298 14.5781 6.11719 14.5781C6.31139 14.5781 6.46875 14.4208 6.46875 14.2266V13.5469H7.14844C7.34264 13.5469 7.5 13.3895 7.5 13.1953C7.5 13.0011 7.34264 12.8438 7.14844 12.8438H6.46875V12.1641C6.46875 11.9699 6.31139 11.8125 6.11719 11.8125C5.92298 11.8125 5.76562 11.9699 5.76562 12.1641V12.8438H5.08594C4.89173 12.8438 4.73438 13.0011 4.73438 13.1953C4.73438 13.3895 4.89173 13.5469 5.08594 13.5469Z" fill="white"/>
<path d="M12.9778 12.2174C12.8405 12.0802 12.6179 12.0802 12.4806 12.2174L12 12.698L11.5194 12.2174C11.3821 12.0802 11.1595 12.0802 11.0222 12.2174C10.8849 12.3548 10.8849 12.5773 11.0222 12.7146L11.5028 13.1953L11.0222 13.6759C10.8849 13.8132 10.8849 14.0358 11.0222 14.1731C11.1596 14.3103 11.3821 14.3103 11.5194 14.1731L12 13.6925L12.4806 14.1731C12.618 14.3103 12.8405 14.3103 12.9778 14.1731C13.1151 14.0357 13.1151 13.8132 12.9778 13.6759L12.4972 13.1953L12.9778 12.7146C13.1151 12.5773 13.1151 12.3547 12.9778 12.2174Z" fill="white"/>
<path d="M11.21 18.7568C11.3 18.7568 11.39 18.7225 11.4586 18.6538L13.0524 17.0601C13.1897 16.9228 13.1897 16.7002 13.0524 16.5629C12.915 16.4256 12.6925 16.4256 12.5552 16.5629L10.9614 18.1566C10.8241 18.294 10.8241 18.5165 10.9614 18.6538C11.0301 18.7225 11.1201 18.7568 11.21 18.7568Z" fill="white"/>
<path d="M11.3203 17.0625C11.5145 17.0625 11.6719 16.9051 11.6719 16.7109C11.6719 16.5168 11.5145 16.3594 11.3203 16.3594C11.1261 16.3594 10.9688 16.5168 10.9688 16.7109C10.9688 16.9051 11.1261 17.0625 11.3203 17.0625Z" fill="white"/>
<path d="M12.7266 18.8438C12.9207 18.8438 13.0781 18.6864 13.0781 18.4922C13.0781 18.298 12.9207 18.1406 12.7266 18.1406C12.5324 18.1406 12.375 18.298 12.375 18.4922C12.375 18.6864 12.5324 18.8438 12.7266 18.8438Z" fill="white"/>
<path d="M13.6172 6.23438C14.0695 6.23438 14.4375 5.86636 14.4375 5.41406V4.05469C14.4375 3.60239 14.0695 3.23438 13.6172 3.23438H12.9609C12.5086 3.23438 12.1406 3.60239 12.1406 4.05469V5.41406C12.1406 5.86636 12.5086 6.23438 12.9609 6.23438H13.6172ZM12.8438 5.41406V4.05469C12.8438 3.99005 12.8963 3.9375 12.9609 3.9375H13.6172C13.6818 3.9375 13.7344 3.99005 13.7344 4.05469V5.41406C13.7344 5.4787 13.6818 5.53125 13.6172 5.53125H12.9609C12.8963 5.53125 12.8438 5.4787 12.8438 5.41406Z" fill="white"/>
</svg>
