<svg width="23" height="24" viewBox="0 0 23 24" fill="none" xmlns="http://www.w3.org/2000/svg">
<path d="M22.0866 13.1527H21.1491V10.363C21.1491 9.55359 20.5685 8.87712 19.8016 8.72777L20.581 7.94901C20.8503 7.67995 20.9986 7.32209 20.9986 6.9415C20.9986 6.56091 20.8503 6.20306 20.581 5.93399L15.059 0.416472C14.5033 -0.138824 13.5991 -0.138824 13.0434 0.416472L4.7562 8.69707H1.66697C0.747817 8.69707 0 9.44441 0 10.363V22.334C0 23.2527 0.74777 24 1.66697 24H19.4821C20.4013 24 21.1491 23.2527 21.1491 22.334V19.5444H22.0866C22.3455 19.5444 22.5554 19.3345 22.5554 19.0757V13.6214C22.5554 13.3625 22.3455 13.1527 22.0866 13.1527ZM13.706 1.07968C13.8963 0.889547 14.206 0.889547 14.3963 1.07968L19.9183 6.5972C20.0103 6.68917 20.0611 6.81147 20.0611 6.9415C20.0611 7.07154 20.0103 7.19384 19.9183 7.28581L18.5059 8.69702H16.863L17.461 8.09944C17.549 8.01155 17.5985 7.89225 17.5985 7.76784C17.5985 7.64343 17.549 7.52418 17.461 7.43623C17.3287 7.30404 17.2559 7.12831 17.2559 6.94146C17.2559 6.75456 17.3287 6.57882 17.461 6.44663C17.549 6.35869 17.5985 6.23944 17.5985 6.11503C17.5985 5.99067 17.549 5.87137 17.461 5.78343L15.2097 3.53384C15.0267 3.35092 14.7301 3.35092 14.547 3.53384C14.2737 3.80689 13.8289 3.80698 13.5556 3.53384C13.3726 3.35097 13.0759 3.35097 12.8929 3.53384L7.72558 8.69707H6.08261L13.706 1.07968ZM16.5145 7.71998L15.5366 8.69707H9.05199L13.2724 4.47999C13.7566 4.74113 14.3457 4.74118 14.83 4.47999L16.5145 6.16308C16.3863 6.39938 16.3183 6.66522 16.3183 6.94155C16.3183 7.21784 16.3863 7.48367 16.5145 7.71998ZM0.937572 22.334V10.363C0.937572 9.96136 1.26477 9.63459 1.66701 9.63459H2.89976V23.0625H1.66697C1.26477 23.0624 0.937572 22.7357 0.937572 22.334ZM20.2116 22.334C20.2116 22.7357 19.8844 23.0624 19.4821 23.0624H3.83724V9.63459H19.4821C19.8843 9.63459 20.2116 9.96136 20.2116 10.363V13.1527H16.658C14.8958 13.1527 13.4622 14.5863 13.4622 16.3485C13.4622 18.1107 14.8958 19.5444 16.658 19.5444H20.2116V22.334ZM21.6179 18.6068H16.658C15.4128 18.6068 14.3997 17.5938 14.3997 16.3485C14.3997 15.1032 15.4128 14.0901 16.658 14.0901H21.6179V18.6068Z" fill="#0A0A21" fill-opacity="0.3"/>
<path d="M17.4126 19.3486C17.4126 20.2074 18.1117 20.9061 18.971 20.9061C19.8303 20.9061 20.5294 20.2074 20.5294 19.3486C20.5294 18.4897 19.8303 17.791 18.971 17.791C18.1117 17.791 17.4126 18.4897 17.4126 19.3486ZM18.971 18.7285C19.3134 18.7285 19.5919 19.0067 19.5919 19.3485C19.5919 19.6904 19.3134 19.9686 18.971 19.9686C18.6286 19.9686 18.3501 19.6904 18.3501 19.3485C18.3501 19.0067 18.6286 18.7285 18.971 18.7285Z" fill="#0A0A21" fill-opacity="0.3"/>
</svg>
