<svg width="16" height="16" viewBox="0 0 16 16" fill="none" xmlns="http://www.w3.org/2000/svg">
<path d="M8 0C6.41775 0 4.87103 0.469192 3.55544 1.34824C2.23985 2.22729 1.21447 3.47672 0.608967 4.93853C0.00346627 6.40034 -0.15496 8.00887 0.153721 9.56072C0.462403 11.1126 1.22433 12.538 2.34315 13.6569C3.46197 14.7757 4.88743 15.5376 6.43928 15.8463C7.99113 16.155 9.59966 15.9965 11.0615 15.391C12.5233 14.7855 13.7727 13.7602 14.6518 12.4446C15.5308 11.129 16 9.58225 16 8C16 5.87827 15.1571 3.84344 13.6569 2.34315C12.1566 0.842854 10.1217 0 8 0ZM4.57143 13.9314V12.7886C4.54634 12.306 4.71206 11.833 5.03282 11.4716C5.35357 11.1102 5.8036 10.8895 6.28572 10.8571H9.71429C10.1974 10.8895 10.6484 11.111 10.9693 11.4736C11.2902 11.8363 11.4552 12.3108 11.4286 12.7943V13.9371C10.3877 14.5435 9.20462 14.863 8 14.863C6.79539 14.863 5.61232 14.5435 4.57143 13.9371V13.9314ZM12.5714 13.0971V12.7486C12.587 11.9695 12.2965 11.2154 11.7624 10.6481C11.2282 10.0808 10.4929 9.74554 9.71429 9.71428H6.28572C5.50663 9.74408 4.77046 10.0789 4.23598 10.6465C3.70149 11.2141 3.41151 11.9691 3.42857 12.7486V13.0857C2.39347 12.1599 1.66387 10.9416 1.33632 9.59202C1.00877 8.24246 1.09872 6.82525 1.59425 5.52792C2.08978 4.2306 2.96755 3.11431 4.1114 2.32677C5.25525 1.53923 6.61126 1.11756 8 1.11756C9.38875 1.11756 10.7448 1.53923 11.8886 2.32677C13.0325 3.11431 13.9102 4.2306 14.4058 5.52792C14.9013 6.82525 14.9912 8.24246 14.6637 9.59202C14.3361 10.9416 13.6065 12.1599 12.5714 13.0857V13.0971Z" fill="black" fill-opacity="0.6"/>
<path d="M8 2.85718C7.43491 2.85718 6.88251 3.02475 6.41265 3.33869C5.9428 3.65264 5.57659 4.09886 5.36034 4.62094C5.14409 5.14301 5.08751 5.71749 5.19775 6.27172C5.308 6.82595 5.58011 7.33505 5.97969 7.73462C6.37927 8.1342 6.88836 8.40632 7.4426 8.51656C7.99683 8.62681 8.5713 8.57022 9.09338 8.35397C9.61545 8.13772 10.0617 7.77152 10.3756 7.30166C10.6896 6.83181 10.8571 6.27941 10.8571 5.71432C10.8571 4.95656 10.5561 4.22983 10.0203 3.69402C9.48448 3.1582 8.75776 2.85718 8 2.85718ZM8 7.4286C7.66094 7.4286 7.3295 7.32806 7.04759 7.1397C6.76568 6.95133 6.54595 6.68359 6.4162 6.37035C6.28645 6.0571 6.2525 5.71242 6.31865 5.37988C6.3848 5.04734 6.54807 4.74188 6.78781 4.50214C7.02756 4.26239 7.33302 4.09912 7.66556 4.03297C7.99809 3.96683 8.34278 4.00078 8.65602 4.13053C8.96927 4.26028 9.237 4.48 9.42537 4.76191C9.61374 5.04383 9.71428 5.37527 9.71428 5.71432C9.71428 6.16898 9.53367 6.60501 9.21218 6.9265C8.89069 7.24799 8.45465 7.4286 8 7.4286Z" fill="black" fill-opacity="0.6"/>
</svg>
