<svg width="24" height="24" viewBox="0 0 24 24" fill="none" xmlns="http://www.w3.org/2000/svg">
<path d="M9.14062 14.1562C9.52833 14.1562 9.84375 14.4717 9.84375 14.8594C9.84375 15.2477 10.1586 15.5625 10.5469 15.5625C10.9352 15.5625 11.25 15.2477 11.25 14.8594C11.25 13.9427 10.6621 13.1612 9.84375 12.8709V12.0469C9.84375 11.6586 9.52894 11.3438 9.14062 11.3438C8.75231 11.3438 8.4375 11.6586 8.4375 12.0469V12.8709C7.61911 13.1612 7.03125 13.9427 7.03125 14.8594C7.03125 16.0225 7.97752 16.9688 9.14062 16.9688C9.52833 16.9688 9.84375 17.2842 9.84375 17.6719C9.84375 18.0596 9.52833 18.375 9.14062 18.375C8.75292 18.375 8.4375 18.0596 8.4375 17.6719C8.4375 17.2836 8.12269 16.9688 7.73438 16.9688C7.34606 16.9688 7.03125 17.2836 7.03125 17.6719C7.03125 18.5885 7.61911 19.3701 8.4375 19.6603V20.4844C8.4375 20.8727 8.75231 21.1875 9.14062 21.1875C9.52894 21.1875 9.84375 20.8727 9.84375 20.4844V19.6603C10.6621 19.3701 11.25 18.5885 11.25 17.6719C11.25 16.5088 10.3037 15.5625 9.14062 15.5625C8.75292 15.5625 8.4375 15.2471 8.4375 14.8594C8.4375 14.4717 8.75292 14.1562 9.14062 14.1562Z" fill="black" fill-opacity="0.3"/>
<path d="M23.2969 16.9688H17.8133C17.0412 14.3305 15.4485 12.7455 14.033 11.3368C12.6492 9.95967 11.525 8.83941 11.2942 7.03125H11.9531C12.3414 7.03125 12.6562 6.71644 12.6562 6.32812C12.6562 5.93981 12.3414 5.625 11.9531 5.625H11.3145C11.7126 3.38114 13.8213 1.23591 13.8565 1.20033C13.8566 1.20033 13.8566 1.20028 13.8566 1.20023C13.8567 1.20019 13.857 1.19991 13.857 1.19986C14.3036 0.749812 13.9755 0 13.359 0C12.0916 4.6875e-05 11.4088 0.455344 10.86 0.821203C10.3697 1.14806 9.98241 1.40625 9.14062 1.40625C8.29884 1.40625 7.91156 1.14806 7.42125 0.821203C6.87244 0.455344 6.18947 0 4.92188 0C4.30247 0 3.97964 0.755203 4.42425 1.19986C4.4243 1.19991 4.42458 1.20019 4.42462 1.20023C4.42467 1.20028 4.42472 1.20033 4.42472 1.20033C4.45997 1.23586 6.56864 3.38114 6.96675 5.625H6.32812C5.93981 5.625 5.625 5.93981 5.625 6.32812C5.625 6.71644 5.93981 7.03125 6.32812 7.03125H6.987C6.75642 8.83537 5.6348 9.95072 4.25419 11.3218C3.29948 12.27 2.21738 13.3447 1.39795 14.7745C0.457266 16.4161 0 18.2838 0 20.4844C0 20.5307 0.000375 20.577 0.00107812 20.6229C0.0302344 22.485 1.60814 24 3.51848 24H14.7628C14.7633 24 14.7638 24 14.7642 24C14.7647 24 14.7652 24 14.7656 24H23.2969C23.6852 24 24 23.6852 24 23.2969V17.6719C24 17.2836 23.6852 16.9688 23.2969 16.9688ZM22.5938 19.7812H15.4688V18.375H17.2678C17.269 18.375 17.2703 18.3751 17.2715 18.3751C17.2725 18.3751 17.2733 18.375 17.2743 18.375H22.5938V19.7812ZM9.14062 2.8125C10.1329 2.8125 10.767 2.53345 11.2588 2.23673C10.6499 3.18309 10.0621 4.3748 9.8925 5.625H8.38866C8.21911 4.3748 7.63125 3.18309 7.02234 2.23673C7.5143 2.53345 8.14833 2.8125 9.14062 2.8125ZM1.40719 20.6005C1.40653 20.5619 1.40625 20.5231 1.40625 20.4844C1.40625 16.1321 3.35784 14.1939 5.24513 12.3196C6.67922 10.8953 8.15714 9.42619 8.40155 7.03125H9.87966C10.1242 9.42942 11.6045 10.904 13.041 12.3336C14.3151 13.6015 15.627 14.9081 16.3372 16.9688H14.7656C14.3773 16.9688 14.0625 17.2836 14.0625 17.6719V22.5938H3.51848C2.3715 22.5938 1.42439 21.6997 1.40719 20.6005ZM22.5938 22.5938H15.4688V21.1875H22.5938V22.5938Z" fill="black" fill-opacity="0.3"/>
</svg>
