<svg width="26" height="24" viewBox="0 0 26 24" fill="none" xmlns="http://www.w3.org/2000/svg">
<g clip-path="url(#clip0)">
<path d="M9.81062 14.1562C10.2106 14.1562 10.536 14.4717 10.536 14.8594C10.536 15.2477 10.8608 15.5625 11.2614 15.5625C11.6621 15.5625 11.9868 15.2477 11.9868 14.8594C11.9868 13.9427 11.3804 13.1612 10.536 12.8709V12.0469C10.536 11.6586 10.2112 11.3438 9.81062 11.3438C9.41 11.3438 9.08521 11.6586 9.08521 12.0469V12.8709C8.24089 13.1612 7.6344 13.9427 7.6344 14.8594C7.6344 16.0225 8.61065 16.9688 9.81062 16.9688C10.2106 16.9688 10.536 17.2842 10.536 17.6719C10.536 18.0596 10.2106 18.375 9.81062 18.375C9.41063 18.375 9.08521 18.0596 9.08521 17.6719C9.08521 17.2836 8.76042 16.9688 8.35981 16.9688C7.95919 16.9688 7.6344 17.2836 7.6344 17.6719C7.6344 18.5885 8.24089 19.3701 9.08521 19.6603V20.4844C9.08521 20.8727 9.41 21.1875 9.81062 21.1875C10.2112 21.1875 10.536 20.8727 10.536 20.4844V19.6603C11.3804 19.3701 11.9868 18.5885 11.9868 17.6719C11.9868 16.5088 11.0106 15.5625 9.81062 15.5625C9.41063 15.5625 9.08521 15.2471 9.08521 14.8594C9.08521 14.4717 9.41063 14.1562 9.81062 14.1562Z" fill="white"/>
<path d="M24.4155 16.9688H18.7581C17.9615 14.3305 16.3184 12.7455 14.858 11.3368C13.4303 9.95967 12.2705 8.83941 12.0324 7.03125H12.7122C13.1128 7.03125 13.4376 6.71644 13.4376 6.32812C13.4376 5.93981 13.1128 5.625 12.7122 5.625H12.0534C12.4641 3.38114 14.6396 1.23591 14.676 1.20033C14.676 1.20033 14.676 1.20028 14.6761 1.20023C14.6761 1.20019 14.6764 1.19991 14.6764 1.19986C15.1372 0.749812 14.7987 0 14.1627 0C12.8551 4.6875e-05 12.1506 0.455344 11.5845 0.821203C11.0786 1.14806 10.6791 1.40625 9.8106 1.40625C8.94215 1.40625 8.54259 1.14806 8.03674 0.821203C7.47054 0.455344 6.76592 0 5.45816 0C4.81912 0 4.48607 0.755203 4.94477 1.19986C4.94481 1.19991 4.9451 1.20019 4.94515 1.20023C4.9452 1.20028 4.94525 1.20033 4.94525 1.20033C4.98162 1.23586 7.15711 3.38114 7.56784 5.625H6.90897C6.50836 5.625 6.18357 5.93981 6.18357 6.32812C6.18357 6.71644 6.50836 7.03125 6.90897 7.03125H7.58873C7.35084 8.83537 6.19367 9.95072 4.76931 11.3218C3.78436 12.27 2.66795 13.3447 1.82256 14.7745C0.852066 16.4161 0.38031 18.2838 0.38031 20.4844C0.38031 20.5307 0.380697 20.577 0.381422 20.6229C0.411503 22.485 2.03941 24 4.0103 24H15.611C15.6114 24 15.6119 24 15.6124 24C15.6129 24 15.6134 24 15.6139 24H24.4155C24.8161 24 25.1409 23.6852 25.1409 23.2969V17.6719C25.1409 17.2836 24.8161 16.9688 24.4155 16.9688ZM23.6901 19.7812H16.3393V18.375H18.1953C18.1966 18.375 18.1979 18.3751 18.1992 18.3751C18.2001 18.3751 18.201 18.375 18.202 18.375H23.6901V19.7812ZM9.8106 2.8125C10.8343 2.8125 11.4885 2.53345 11.9959 2.23673C11.3677 3.18309 10.7613 4.3748 10.5863 5.625H9.0348C8.85988 4.3748 8.2534 3.18309 7.62519 2.23673C8.13274 2.53345 8.78686 2.8125 9.8106 2.8125ZM1.83209 20.6005C1.83141 20.5619 1.83112 20.5231 1.83112 20.4844C1.83112 16.1321 3.84456 14.1939 5.79165 12.3196C7.27119 10.8953 8.79595 9.42619 9.0481 7.03125H10.5731C10.8254 9.42942 12.3526 10.904 13.8345 12.3336C15.149 13.6015 16.5026 14.9081 17.2352 16.9688H15.6139C15.2132 16.9688 14.8885 17.2836 14.8885 17.6719V22.5938H4.0103C2.82696 22.5938 1.84984 21.6997 1.83209 20.6005ZM23.6901 22.5938H16.3393V21.1875H23.6901V22.5938Z" fill="white"/>
</g>
<defs>
<clipPath id="clip0">
<rect width="24.7606" height="24" fill="white" transform="translate(0.38031)"/>
</clipPath>
</defs>
</svg>
