<svg width="84" height="84" viewBox="0 0 84 84" fill="none" xmlns="http://www.w3.org/2000/svg">
<path d="M65.8 21.5054V16.1L70.84 12.32C71.1924 12.0556 71.4 11.6406 71.4 11.2V1.4C71.4 0.62685 70.7731 0 70 0H64.4C64.0286 0 63.6727 0.1477 63.4102 0.4102L61.6 2.2204L59.7898 0.4102C59.5273 0.1477 59.1713 0 58.8 0H50.4C50.0286 0 49.6727 0.1477 49.4102 0.4102L47.6 2.2204L45.7898 0.4102C45.5273 0.1477 45.1713 0 44.8 0H39.2C38.4268 0 37.8 0.62685 37.8 1.4V11.2C37.8 11.6406 38.0075 12.0556 38.36 12.32L43.4 16.1V16.8H1.4C0.62685 16.8 0 17.4268 0 18.2V82.6C0 83.3731 0.62685 84 1.4 84H53.2V83.9566C53.669 83.9678 54.1198 84 54.6 84C73.2844 84 84 74.7866 84 58.723C84 44.0258 78.3496 27.0494 65.8 21.5054ZM40.6 10.5V2.8H44.2204L46.6102 5.1898C47.1569 5.73632 48.0431 5.73632 48.5898 5.1898L50.9796 2.8H58.2204L60.6102 5.1898C61.1569 5.73632 62.0431 5.73632 62.5898 5.1898L64.9796 2.8H68.6V10.5L63.9338 14H45.2662L40.6 10.5ZM63 16.8V21H46.2V16.8H63ZM2.8 19.6H43.4V21.5054C42.7756 21.7854 42.1596 22.0654 41.5702 22.4H12.6C11.8268 22.4 11.2 23.0268 11.2 23.8V28H7C6.22685 28 5.6 28.6269 5.6 29.4V43.4C5.6 44.1731 6.22685 44.8 7 44.8H11.2V49C11.2 49.7731 11.8268 50.4 12.6 50.4H25.795C25.6634 51.3338 25.5514 52.2676 25.4646 53.2H2.8V19.6ZM32.5762 31.1057C29.6669 28.5759 25.2572 28.8811 22.7245 31.7891C20.1905 34.6985 20.4946 39.1113 23.404 41.6455C24.4886 42.5901 25.8384 43.177 27.269 43.326C26.8826 44.7344 26.5438 46.1596 26.268 47.6002H14V43.4002C14 42.627 13.3731 42.0002 12.6 42.0002H8.4V30.8002H12.6C13.3731 30.8002 14 30.1733 14 29.4002V25.2002H37.6068C35.6708 26.9321 33.9787 28.9189 32.5762 31.1057ZM28.1008 40.5902C28.07 40.5902 28.0392 40.6 28.007 40.6C25.6875 40.6278 23.7848 38.77 23.7571 36.4506C23.7295 34.1311 25.5871 32.2283 27.9065 32.2007C29.1189 32.1862 30.2785 32.6965 31.087 33.6002C29.8896 35.8396 28.8883 38.1784 28.0938 40.5904H28.1008V40.5902ZM2.8 56H25.2672C25.2224 56.9147 25.2 57.8223 25.2 58.723C25.2 59.2298 25.242 59.7072 25.263 60.2H2.8V56ZM2.8 63H25.5052C25.6839 64.4206 25.9746 65.825 26.3746 67.2H2.8V63ZM2.8 70H27.44C28.1033 71.4915 28.9376 72.901 29.9264 74.2H2.8V70ZM2.8 81.2V77H32.494C34.4587 78.7593 36.7027 80.1787 39.1342 81.2H2.8ZM54.6 81.2C46.6018 81.2 28 79.0104 28 58.723C28 44.723 33.2794 28.553 45.066 23.8H64.134C75.9206 28.56 81.2 44.7216 81.2 58.723C81.2 79.0104 62.5982 81.2 54.6 81.2Z" fill="black" fill-opacity="0.05"/>
<path d="M58.6194 55.0125C58.2967 53.9749 57.5638 53.1143 56.5908 52.6302L53.8622 51.2652C53.2714 50.9702 53.0318 50.2522 53.3269 49.6614C53.5292 49.2564 53.9429 49.0004 54.3956 49H54.8044C55.4642 49.0016 55.9984 49.5359 56 50.1956V50.4H58.8V50.1956C58.7935 48.4561 57.6606 46.9214 56 46.403V44.8H53.2V46.403C51.1002 47.0561 49.9275 49.2877 50.5806 51.3876C50.9033 52.4251 51.6362 53.2858 52.6092 53.7699L55.3378 55.1348C55.9286 55.4299 56.1682 56.1479 55.8731 56.7387C55.6708 57.1437 55.2571 57.3997 54.8044 57.4H54.3956C53.7359 57.3985 53.2016 56.8642 53.2 56.2044V56H50.4V56.2044C50.4065 57.9439 51.5394 59.4787 53.2 59.997V61.6H56V59.997C58.0998 59.3439 59.2725 57.1123 58.6194 55.0125Z" fill="black" fill-opacity="0.05"/>
<path d="M47.6 51.8H44.8V54.6H47.6V51.8Z" fill="black" fill-opacity="0.05"/>
<path d="M64.4 51.8H61.6V54.6H64.4V51.8Z" fill="black" fill-opacity="0.05"/>
<path d="M54.6 32.2C43.0021 32.2 33.6 41.602 33.6 53.1999C33.6 64.7979 43.0021 74.1999 54.6 74.1999C66.198 74.1999 75.6 64.7979 75.6 53.1999C75.5869 41.6074 66.1925 32.2131 54.6 32.2ZM54.6 71.3999C44.5484 71.3999 36.4 63.2516 36.4 53.1999C36.4 43.1483 44.5484 35 54.6 35C64.6517 35 72.8 43.1483 72.8 53.1999C72.7885 63.2467 64.6468 71.3884 54.6 71.3999Z" fill="black" fill-opacity="0.05"/>
<path d="M62.282 39.858C59.9457 38.5112 57.2968 37.8016 54.6 37.8C46.0948 37.8 39.2 44.6949 39.2 53.2C39.2 56.5322 40.2808 59.7744 42.28 62.44L44.52 60.76C42.8766 58.583 41.9916 55.9276 42 53.2C42.0067 46.2452 47.6502 40.6125 54.6051 40.6191C61.5599 40.6258 67.1927 46.2693 67.186 53.2242C67.1794 60.179 61.5358 65.8118 54.5809 65.8051C52.3759 65.803 50.21 65.2218 48.3 64.12L46.9 66.542C54.2686 70.7896 63.6853 68.2597 67.9329 60.8909C72.1805 53.5222 69.6505 44.1056 62.282 39.858Z" fill="black" fill-opacity="0.05"/>
<path d="M8.39998 22.3999H5.59998V25.1999H8.39998V22.3999Z" fill="black" fill-opacity="0.05"/>
<path d="M8.39998 47.6001H5.59998V50.4001H8.39998V47.6001Z" fill="black" fill-opacity="0.05"/>
</svg>
