<svg width="24" height="24" viewBox="0 0 24 24" fill="none" xmlns="http://www.w3.org/2000/svg">
<path d="M18.8572 16.2856H20.5715V20.5714H18.8572V16.2856Z" fill="#557BF2"/>
<path d="M15.4286 12H17.1429V20.5714H15.4286V12Z" fill="#557BF2"/>
<path d="M7.7143 20.5714C6.57808 20.5701 5.48878 20.1181 4.68535 19.3147C3.88192 18.5112 3.42995 17.4219 3.42859 16.2857H5.14287C5.14287 16.7943 5.29369 17.2915 5.57624 17.7143C5.85879 18.1372 6.26039 18.4668 6.73026 18.6614C7.20013 18.856 7.71716 18.907 8.21596 18.8077C8.71477 18.7085 9.17296 18.4636 9.53258 18.104C9.8922 17.7444 10.1371 17.2862 10.2363 16.7874C10.3355 16.2886 10.2846 15.7715 10.09 15.3017C9.89537 14.8318 9.56578 14.4302 9.14291 14.1476C8.72004 13.8651 8.22288 13.7143 7.7143 13.7143V12C8.85094 12 9.94103 12.4515 10.7448 13.2553C11.5485 14.059 12 15.1491 12 16.2857C12 17.4224 11.5485 18.5124 10.7448 19.3162C9.94103 20.1199 8.85094 20.5714 7.7143 20.5714Z" fill="#557BF2"/>
<path d="M22.2857 0H1.71429C1.25977 0.000453837 0.823996 0.181211 0.502604 0.502604C0.181211 0.823996 0.000453837 1.25977 0 1.71429V22.2857C0.000453837 22.7402 0.181211 23.176 0.502604 23.4974C0.823996 23.8188 1.25977 23.9995 1.71429 24H22.2857C22.7402 23.9993 23.1758 23.8185 23.4971 23.4971C23.8185 23.1758 23.9993 22.7402 24 22.2857V1.71429C23.9995 1.25977 23.8188 0.823996 23.4974 0.502604C23.176 0.181211 22.7402 0.000453837 22.2857 0ZM22.2857 7.71429H10.2857V1.71429H22.2857V7.71429ZM8.57143 1.71429V7.71429H1.71429V1.71429H8.57143ZM1.71429 22.2857V9.42857H22.2857L22.2874 22.2857H1.71429Z" fill="#557BF2"/>
</svg>
