<svg width="24" height="24" viewBox="0 0 24 24" fill="none" xmlns="http://www.w3.org/2000/svg">
<g clip-path="url(#clip0)">
<path d="M17.5 21.5C17.224 21.5 17 21.276 17 21V20C17 19.724 17.224 19.5 17.5 19.5C17.776 19.5 18 19.724 18 20V21C18 21.276 17.776 21.5 17.5 21.5Z" fill="black" fill-opacity="0.3"/>
<path d="M17.75 20.5H16C15.724 20.5 15.5 20.276 15.5 20C15.5 19.724 15.724 19.5 16 19.5H17.75C18.164 19.5 18.5 19.163 18.5 18.75C18.5 18.337 18.164 18 17.75 18H17.25C16.285 18 15.5 17.215 15.5 16.25C15.5 15.285 16.285 14.5 17.25 14.5H19C19.276 14.5 19.5 14.724 19.5 15C19.5 15.276 19.276 15.5 19 15.5H17.25C16.836 15.5 16.5 15.837 16.5 16.25C16.5 16.663 16.836 17 17.25 17H17.75C18.715 17 19.5 17.785 19.5 18.75C19.5 19.715 18.715 20.5 17.75 20.5Z" fill="black" fill-opacity="0.3"/>
<path d="M17.5 15.5C17.224 15.5 17 15.276 17 15V14C17 13.724 17.224 13.5 17.5 13.5C17.776 13.5 18 13.724 18 14V15C18 15.276 17.776 15.5 17.5 15.5Z" fill="black" fill-opacity="0.3"/>
<path d="M17.5 24C13.916 24 11 21.084 11 17.5C11 13.916 13.916 11 17.5 11C21.084 11 24 13.916 24 17.5C24 21.084 21.084 24 17.5 24ZM17.5 12C14.467 12 12 14.468 12 17.5C12 20.532 14.467 23 17.5 23C20.533 23 23 20.532 23 17.5C23 14.468 20.533 12 17.5 12Z" fill="black" fill-opacity="0.3"/>
<path d="M8.5 21H2.5C1.122 21 0 19.879 0 18.5V2.5C0 1.122 1.122 0 2.5 0H13.5C14.878 0 16 1.122 16 2.5V8.5C16 8.776 15.776 9 15.5 9C15.224 9 15 8.776 15 8.5V2.5C15 1.673 14.327 1 13.5 1H2.5C1.673 1 1 1.673 1 2.5V18.5C1 19.327 1.673 20 2.5 20H8.5C8.776 20 9 20.224 9 20.5C9 20.776 8.776 21 8.5 21Z" fill="black" fill-opacity="0.3"/>
<path d="M9.5 13.89C9.224 13.89 9 13.666 9 13.39V5.5C9 5.224 9.224 5 9.5 5H12.5C12.776 5 13 5.224 13 5.5V10.02C13 10.296 12.776 10.52 12.5 10.52C12.224 10.52 12 10.296 12 10.02V6H10V13.39C10 13.666 9.776 13.89 9.5 13.89Z" fill="black" fill-opacity="0.3"/>
<path d="M6.49999 15H3.5C3.224 15 3 14.776 3 14.5V9.5C3 9.224 3.224 9 3.5 9H6.49999C6.77599 9 6.99999 9.224 6.99999 9.5V14.5C6.99999 14.776 6.77599 15 6.49999 15ZM4 14H5.99999V10H4V14Z" fill="black" fill-opacity="0.3"/>
<path d="M9.02 15H2.5C2.224 15 2 14.776 2 14.5C2 14.224 2.224 14 2.5 14H9.02C9.296 14 9.52 14.224 9.52 14.5C9.52 14.776 9.296 15 9.02 15Z" fill="black" fill-opacity="0.3"/>
</g>
<defs>
<clipPath id="clip0">
<rect width="24" height="24" fill="white"/>
</clipPath>
</defs>
</svg>
