<svg width="15" height="14" viewBox="0 0 15 14" fill="none" xmlns="http://www.w3.org/2000/svg">
<path d="M0 6.9997L3.74963 9.99941V7.74963H10.499V6.24978H3.74963V4L0 6.9997Z" fill="#0A0A21" fill-opacity="0.6"/>
<path d="M8.24995 2.57683e-05C7.36318 -0.00243301 6.48474 0.171092 5.66551 0.510548C4.84629 0.850005 4.10256 1.34865 3.47742 1.97758L4.53781 3.03798C5.52922 2.04658 6.84759 1.49988 8.24995 1.49988C9.65231 1.49988 10.9707 2.04658 11.9621 3.03798C12.9535 4.02938 13.5002 5.34775 13.5002 6.75011C13.5002 8.15248 12.9535 9.47085 11.9621 10.4623C10.9707 11.4537 9.65231 12.0003 8.24995 12.0003C6.84759 12.0003 5.52922 11.4537 4.53781 10.4623L3.47742 11.5226C4.75154 12.7975 6.44638 13.5002 8.24995 13.5002C10.0535 13.5002 11.7484 12.7975 13.0225 11.5226C14.2974 10.2485 15 8.55369 15 6.75011C15 4.94654 14.2974 3.25171 13.0225 1.97758C12.3973 1.34865 11.6536 0.850005 10.8344 0.510548C10.0152 0.171092 9.13672 -0.00243301 8.24995 2.57683e-05Z" fill="#0A0A21" fill-opacity="0.6"/>
</svg>
