<svg width="24" height="24" viewBox="0 0 24 24" fill="none" xmlns="http://www.w3.org/2000/svg">
<g clip-path="url(#clip0)">
<path d="M19.9945 13.3094L16.411 7.69179C16.9187 7.42496 17.266 6.89252 17.266 6.2802C17.266 5.60999 16.85 5.03546 16.2627 4.80027L17.3483 1.00485C17.3952 0.841108 17.3495 0.664894 17.2291 0.544465C16.507 -0.177641 15.332 -0.177641 14.6099 0.544465C14.4371 0.71721 14.2075 0.812325 13.9632 0.812325C13.7189 0.812325 13.4893 0.71721 13.3154 0.54334L13.3131 0.541043C12.5936 -0.178625 11.4206 -0.180641 10.6981 0.536777L10.6847 0.550184C10.3281 0.904253 9.74892 0.903221 9.39363 0.547887L9.39021 0.544465C8.66806 -0.177641 7.49311 -0.177641 6.77095 0.544465C6.65048 0.664988 6.60487 0.841343 6.65179 1.00518L7.73973 4.79938C7.15123 5.03396 6.73406 5.6091 6.73406 6.28025C6.73406 6.89257 7.08133 7.42501 7.58911 7.69184L4.00553 13.3094C2.61917 15.4827 2.53132 18.1297 3.77053 20.3901C5.00975 22.6505 7.28858 24 9.86644 24H14.1335C16.7114 24 18.9902 22.6505 20.2295 20.3901C21.4687 18.1297 21.3809 15.4827 19.9945 13.3094ZM8.72722 1.20741L8.73064 1.21083C9.45031 1.93046 10.6232 1.93242 11.3456 1.2151L11.3591 1.20169C11.7156 0.847624 12.2948 0.848656 12.6512 1.20507L12.6535 1.20736C13.3757 1.92947 14.5506 1.92947 15.2728 1.20736C15.5666 0.913534 16.0123 0.861828 16.3595 1.05225L15.3202 4.68636H8.68273L7.64063 1.0522C7.9879 0.861828 8.43343 0.913628 8.72722 1.20741ZM19.4074 19.9394C18.3353 21.895 16.3638 23.0625 14.1336 23.0625H9.86649C7.63632 23.0625 5.66482 21.895 4.59273 19.9394C3.52063 17.9839 3.59662 15.6939 4.79599 13.8137L8.58489 7.87405H9.89054C10.1494 7.87405 10.3593 7.66418 10.3593 7.40527C10.3593 7.14637 10.1494 6.93649 9.89054 6.93649H8.32791C7.96601 6.93649 7.67162 6.6421 7.67162 6.2802C7.67162 5.91831 7.96601 5.62391 8.32791 5.62391H8.32946H15.6721C16.034 5.62391 16.3284 5.91831 16.3284 6.2802C16.3284 6.6421 16.034 6.93649 15.6721 6.93649H14.1095C13.8506 6.93649 13.6408 7.14637 13.6408 7.40527C13.6408 7.66418 13.8506 7.87405 14.1095 7.87405H15.4151L19.2041 13.8137C20.4035 15.6938 20.4795 17.9838 19.4074 19.9394Z" fill="white"/>
<path d="M12.8265 15.3093C12.7089 15.2677 12.5888 15.2245 12.4688 15.1795V13.0549C12.7866 13.1484 12.9989 13.3001 13.0079 13.3066C13.2141 13.4611 13.5067 13.4201 13.6625 13.2145C13.8188 13.0081 13.7783 12.7141 13.5719 12.5577C13.5444 12.5369 13.1085 12.2133 12.4688 12.0908V11.6243C12.4688 11.3654 12.2589 11.1555 12 11.1555C11.7411 11.1555 11.5312 11.3654 11.5312 11.6243V12.0874C11.4518 12.1027 11.3713 12.122 11.2898 12.1465C10.63 12.3447 10.1369 12.9089 10.0027 13.6189C9.88034 14.2673 10.0881 14.8926 10.5448 15.2508C10.7927 15.4452 11.1024 15.6227 11.5312 15.8113V18.53C11.1621 18.5067 10.9151 18.4227 10.5034 18.1533C10.2868 18.0115 9.99622 18.0723 9.85451 18.289C9.71275 18.5057 9.7735 18.7962 9.99017 18.9379C10.5905 19.3306 10.997 19.4419 11.5312 19.4682V19.9529C11.5312 20.2118 11.7411 20.4217 12 20.4217C12.2589 20.4217 12.4688 20.2118 12.4688 19.9529V19.4195C13.4726 19.1996 14.0597 18.362 14.1915 17.5783C14.3637 16.5539 13.8279 15.6632 12.8265 15.3093ZM11.1234 14.513C10.9432 14.3717 10.8668 14.0957 10.924 13.7929C10.9766 13.5143 11.164 13.1784 11.5312 13.0542V14.771C11.3771 14.6888 11.238 14.6029 11.1234 14.513ZM13.2668 17.4229C13.1993 17.8244 12.9283 18.2502 12.4688 18.4384V16.177C12.484 16.1825 12.4985 16.1878 12.514 16.1932C13.3545 16.4903 13.3028 17.2095 13.2668 17.4229Z" fill="white"/>
<path d="M12 7.87409C12.1233 7.87409 12.2443 7.82393 12.3315 7.73674C12.4187 7.64954 12.4688 7.5286 12.4688 7.40531C12.4688 7.28202 12.4187 7.16107 12.3315 7.07388C12.2443 6.98668 12.1233 6.93652 12 6.93652C11.8767 6.93652 11.7558 6.98668 11.6686 7.07388C11.5814 7.16107 11.5312 7.28202 11.5312 7.40531C11.5312 7.5286 11.5814 7.64954 11.6686 7.73674C11.7558 7.82393 11.8767 7.87409 12 7.87409Z" fill="white"/>
</g>
<defs>
<clipPath id="clip0">
<rect width="24" height="24" fill="white"/>
</clipPath>
</defs>
</svg>
