<svg width="84" height="84" viewBox="0 0 84 84" fill="none" xmlns="http://www.w3.org/2000/svg">
<g clip-path="url(#clip0)">
<path d="M26.9192 21.0291C19.1613 21.0291 12.8499 27.3405 12.8499 35.0986C12.8499 42.8566 19.1612 49.1681 26.9192 49.1681C34.6772 49.1681 40.9887 42.8566 40.9887 35.0986C40.9887 27.3405 34.6771 21.0291 26.9192 21.0291ZM26.9192 45.8745C20.9775 45.8745 16.1437 41.0404 16.1437 35.0989C16.1437 29.1572 20.9777 24.3233 26.9192 24.3233C32.861 24.3233 37.6948 29.1572 37.6948 35.0989C37.6948 41.0404 32.8609 45.8745 26.9192 45.8745Z" fill="black" fill-opacity="0.05"/>
<path d="M27.7799 33.5914V30.8407C28.9563 30.9351 29.3004 31.5378 29.8979 31.5378C30.6944 31.5378 31.0203 30.5018 31.0203 29.993C31.0203 28.6932 28.902 28.3918 27.7795 28.354V27.883C27.7795 27.6192 27.4355 27.3743 27.0914 27.3743C26.6933 27.3743 26.4035 27.6192 26.4035 27.883V28.4105C24.4847 28.6932 22.783 29.8424 22.783 32.2351C22.783 34.6465 24.7381 35.4566 26.4035 36.1158V39.1679C25.064 38.923 24.4482 37.8114 23.6881 37.8114C23.0001 37.8114 22.4568 38.7533 22.4568 39.394C22.4568 40.5997 24.2312 41.7678 26.4035 41.8431H26.4037V42.314C26.4037 42.5778 26.6934 42.8227 27.0916 42.8227C27.4357 42.8227 27.7797 42.5778 27.7797 42.314V41.7676C29.8977 41.4098 31.3461 39.9966 31.3461 37.6605C31.3462 35.1175 29.4272 34.2319 27.7799 33.5914ZM26.5847 33.1393C25.8967 32.8379 25.4261 32.4986 25.4261 31.9523C25.4261 31.5001 25.7699 31.0668 26.5847 30.8973V33.1393ZM27.5986 39.1492V36.6246C28.2502 36.9449 28.703 37.3407 28.703 37.9622C28.7029 38.6404 28.214 38.9984 27.5986 39.1492Z" fill="black" fill-opacity="0.05"/>
<path d="M82.3531 61.624H76.1452V13.761C76.1452 10.8192 73.752 8.42603 70.8102 8.42603H5.33498C2.39334 8.42603 0 10.819 0 13.761V68.7707C0 72.5218 3.05189 75.574 6.80318 75.574H77.1968C80.9481 75.574 84.0002 72.5221 84.0002 68.7707V63.2708C84 62.3612 83.2627 61.624 82.3531 61.624ZM3.29388 13.761C3.29388 12.6355 4.20952 11.7197 5.33515 11.7197H70.8104C71.9358 11.7197 72.8516 12.6354 72.8516 13.761V61.624H68.6726V17.5458C68.6726 16.6364 67.9352 15.8989 67.0258 15.8989H9.11991C8.21034 15.8989 7.47305 16.6364 7.47305 17.5458V61.624H3.29388V13.761ZM59.9686 56.1162H15.4599C14.5504 56.1162 13.8131 56.8537 13.8131 57.7631V61.6238H10.7668V19.1928H65.3784V61.6241H61.6155V57.7634C61.6155 56.8537 60.8782 56.1162 59.9686 56.1162ZM58.3216 59.4103V61.6241H17.1068V59.4103H58.3216ZM80.7061 68.7707C80.7061 70.7058 79.1318 72.2801 77.1967 72.2801H6.80318C4.86823 72.2801 3.29388 70.7058 3.29388 68.7707V64.9177H80.7061V68.7707Z" fill="black" fill-opacity="0.05"/>
<path d="M62.3103 34.4224L54.145 21.9264C53.8409 21.461 53.3224 21.1804 52.7664 21.1804C52.2104 21.1804 51.692 21.4611 51.3878 21.9264L43.2226 34.4224C42.8917 34.9285 42.8651 35.5753 43.1527 36.107C43.4405 36.6387 43.9965 36.9701 44.6012 36.9701H47.3668V44.6514C47.3668 45.5608 48.1041 46.2982 49.0137 46.2982H56.5195C57.4289 46.2982 58.1664 45.5608 58.1664 44.6514V36.9701H60.9317C61.5364 36.9703 62.0924 36.6389 62.3802 36.107C62.6679 35.5753 62.6412 34.9287 62.3103 34.4224ZM56.5194 33.6764C55.6098 33.6764 54.8725 34.4137 54.8725 35.3233V43.0045H50.6605V36.9701H51.1786C52.088 36.9701 52.8255 36.2327 52.8255 35.3233C52.8255 34.4137 52.088 33.6764 51.1786 33.6764H47.6446L52.7664 25.838L57.8883 33.6764H56.5194Z" fill="black" fill-opacity="0.05"/>
<path d="M52.0295 51.8107C52.0081 51.707 51.977 51.6032 51.9358 51.5029C51.8946 51.404 51.8434 51.3085 51.7842 51.2194C51.725 51.1288 51.6557 51.0448 51.5799 50.969C51.5041 50.8933 51.4201 50.8242 51.3294 50.7631C51.2405 50.7039 51.1452 50.6527 51.0446 50.6116C50.9458 50.5704 50.842 50.539 50.7366 50.5177C50.5242 50.4749 50.3068 50.4749 50.0927 50.5177C49.989 50.539 49.8852 50.5704 49.7848 50.6116C49.686 50.6527 49.5903 50.7038 49.5014 50.7631C49.4109 50.824 49.3269 50.8933 49.2511 50.969C49.1751 51.0448 49.106 51.1288 49.0452 51.2194C48.9859 51.3083 48.9346 51.4038 48.8936 51.5029C48.8524 51.6032 48.8212 51.707 48.7999 51.8107C48.7787 51.9177 48.7686 52.0266 48.7686 52.1337C48.7686 52.2405 48.7784 52.3493 48.7999 52.4546C48.8214 52.56 48.8524 52.6638 48.8936 52.7626C48.9347 52.863 48.9859 52.9586 49.0452 53.0476C49.1059 53.1381 49.1751 53.2221 49.2511 53.2979C49.3269 53.3737 49.4109 53.4428 49.5014 53.5022C49.5903 53.5614 49.6858 53.6126 49.7848 53.6538C49.8852 53.6949 49.989 53.7263 50.0927 53.7476C50.1998 53.7689 50.3086 53.7806 50.4156 53.7806C50.5229 53.7806 50.6315 53.7689 50.7368 53.7476C50.8421 53.7261 50.9458 53.6949 51.0448 53.6538C51.1452 53.6126 51.2406 53.5616 51.3296 53.5022C51.4203 53.443 51.5043 53.3737 51.5801 53.2979C51.6559 53.222 51.725 53.1381 51.7843 53.0476C51.8434 52.9586 51.8948 52.8632 51.9359 52.7626C51.9771 52.664 52.0083 52.5601 52.0296 52.4546C52.0511 52.3495 52.0626 52.2405 52.0626 52.1337C52.0624 52.0266 52.0511 51.9178 52.0295 51.8107Z" fill="black" fill-opacity="0.05"/>
<path d="M43.847 50.4861H25.0128C24.1033 50.4861 23.366 51.2235 23.366 52.1329C23.366 53.0423 24.1033 53.7798 25.0128 53.7798H43.8469C44.7564 53.7798 45.4937 53.0423 45.4937 52.1329C45.4939 51.2237 44.7564 50.4861 43.847 50.4861Z" fill="black" fill-opacity="0.05"/>
</g>
<defs>
<clipPath id="clip0">
<rect width="84" height="84" fill="white"/>
</clipPath>
</defs>
</svg>
