<svg width="84" height="84" viewBox="0 0 84 84" fill="none" xmlns="http://www.w3.org/2000/svg">
<path d="M28.309 64.2964C28.2877 64.1914 28.2565 64.0881 28.2155 63.988C28.1745 63.8896 28.1236 63.7944 28.0645 63.7058C28.0055 63.6156 27.9366 63.5319 27.8611 63.4564C27.7856 63.381 27.702 63.3121 27.6117 63.253C27.5231 63.1939 27.428 63.1431 27.3279 63.1021C27.2295 63.0611 27.1261 63.0282 27.0211 63.0086C26.8095 62.9659 26.5913 62.9659 26.3813 63.0086C26.2763 63.0282 26.1729 63.0611 26.0728 63.1021C25.9744 63.1431 25.8792 63.1939 25.7906 63.253C25.7004 63.3121 25.6167 63.381 25.5412 63.4564C25.4658 63.5319 25.3969 63.6156 25.3378 63.7058C25.2771 63.7944 25.2279 63.8896 25.1869 63.988C25.1459 64.0881 25.113 64.1914 25.0934 64.2964C25.072 64.4014 25.0605 64.5097 25.0605 64.6164C25.0605 64.723 25.072 64.8313 25.0934 64.9363C25.113 65.0413 25.1459 65.1446 25.1869 65.2431C25.2279 65.3432 25.2771 65.4383 25.3378 65.5269C25.3969 65.6171 25.4658 65.7008 25.5412 65.7763C25.6167 65.8518 25.7004 65.9207 25.7906 65.9797C25.8792 66.0389 25.9744 66.0898 26.0728 66.1308C26.1729 66.1718 26.2763 66.2047 26.3813 66.2243C26.4863 66.2457 26.5945 66.2571 26.7012 66.2571C26.8078 66.2571 26.9161 66.2457 27.0211 66.2243C27.1261 66.2047 27.2295 66.1718 27.3279 66.1308C27.428 66.0898 27.5231 66.0388 27.6117 65.9797C27.702 65.9207 27.7856 65.8518 27.8611 65.7763C27.9366 65.7008 28.0055 65.6171 28.0645 65.5269C28.1236 65.4383 28.1745 65.3432 28.2155 65.2431C28.2565 65.1446 28.2877 65.0413 28.309 64.9363C28.3303 64.8313 28.3418 64.723 28.3418 64.6164C28.3418 64.5097 28.3303 64.4014 28.309 64.2964Z" fill="black" fill-opacity="0.05"/>
<path d="M75.4676 64.8018C75.4612 64.7854 75.4547 64.7692 75.4478 64.7531C73.9377 61.2197 70.3963 59.9138 66.2051 61.3452L54.7752 64.506C54.1144 62.5048 52.466 60.8018 50.1354 59.9369C50.1209 59.9316 50.1065 59.9264 50.0919 59.9215L37.5278 55.6572C36.4821 54.3054 33.2064 50.8467 27.0733 50.8467C22.7871 50.8467 18.9955 53.787 16.8263 56.992H1.64063C0.734508 56.992 0 57.7265 0 58.6326V79.3171C0 80.2232 0.734508 80.9577 1.64063 80.9577H11.3953C12.3014 80.9577 13.0359 80.2232 13.0359 79.3171V77.9006H17.6105C18.5166 77.9006 19.2511 77.1661 19.2511 76.26V75.7878C21.9178 76.0204 22.7948 76.5262 25.244 77.9385C27.1274 79.0246 29.9741 80.666 35.1004 82.9709C35.1241 82.9816 35.1483 82.9918 35.1724 83.0013C36.1563 83.3883 38.0796 83.9963 40.4508 83.9963C42.1012 83.9963 43.9691 83.7015 45.8863 82.8325L71.1505 73.7867C71.1954 73.7706 71.2397 73.7526 71.283 73.7326C73.6975 72.6217 77.2956 69.4909 75.4676 64.8018ZM9.75467 77.6763H3.28125V60.2731H9.75467V77.6763ZM15.9698 74.6192H13.0359V60.2731H15.9698V74.6192ZM69.972 70.7232L44.7192 79.7648C44.697 79.7727 44.667 79.7845 44.6452 79.7934C44.623 79.8024 44.6009 79.8119 44.5791 79.8219C41.0621 81.4383 37.719 80.4706 36.4088 79.9612C31.457 77.7331 28.8141 76.2091 26.8831 75.0956C24.1984 73.5475 22.9048 72.8014 19.2511 72.4997V59.2857C20.8062 56.7368 23.822 54.1278 27.0734 54.1278C32.6493 54.1278 35.0119 57.7544 35.1048 57.9007C35.3051 58.2265 35.613 58.4721 35.9751 58.595L49.014 63.0204C51.0965 63.802 52.197 65.5854 51.6912 67.3638C51.4577 68.1851 50.9183 68.8663 50.1724 69.2819C49.433 69.6939 48.5783 69.7957 47.7635 69.5703L33.0647 64.9123C32.2004 64.6384 31.2787 65.1168 31.005 65.9806C30.7312 66.8444 31.2096 67.7664 32.0734 68.0403L46.7978 72.7064C46.8134 72.7113 46.829 72.716 46.8448 72.7205C47.4326 72.8877 48.0311 72.9703 48.626 72.9703C49.715 72.9703 50.7921 72.6929 51.7696 72.1482C53.2811 71.3061 54.3741 69.9257 54.8472 68.2613C54.885 68.1284 54.9184 67.9955 54.9475 67.8626L67.2658 64.4501C69.0449 63.8424 71.3803 63.6234 72.4202 66.0182C73.4964 68.8297 70.6991 70.3764 69.972 70.7232Z" fill="black" fill-opacity="0.05"/>
<path d="M58.9083 21.5814C58.887 21.4764 58.8558 21.373 58.8131 21.2729C58.7721 21.1745 58.7229 21.0793 58.6622 20.9907C58.6031 20.9005 58.5342 20.8168 58.4588 20.7414C58.3833 20.6659 58.2996 20.597 58.2094 20.5379C58.1208 20.4789 58.0256 20.428 57.9272 20.387C57.8271 20.346 57.7237 20.3132 57.6204 20.2935C57.4087 20.2508 57.1905 20.2508 56.9789 20.2935C56.8739 20.3132 56.7705 20.346 56.6721 20.387C56.572 20.428 56.4769 20.4789 56.3883 20.5379C56.298 20.597 56.2144 20.6659 56.1389 20.7414C56.0634 20.8168 55.9945 20.9005 55.9355 20.9907C55.8764 21.0793 55.8255 21.1745 55.7845 21.2729C55.7435 21.373 55.7107 21.4764 55.691 21.5814C55.6697 21.6864 55.6582 21.7946 55.6582 21.9013C55.6582 22.0079 55.6697 22.1162 55.691 22.2212C55.7107 22.3262 55.7435 22.4296 55.7845 22.528C55.8255 22.6281 55.8764 22.7232 55.9355 22.8118C55.9945 22.9021 56.0634 22.9857 56.1389 23.0612C56.2144 23.1367 56.298 23.2056 56.3883 23.2646C56.4769 23.3237 56.572 23.3746 56.6721 23.4156C56.7705 23.4566 56.8739 23.4878 56.9789 23.5091C57.0839 23.5304 57.1922 23.5419 57.2988 23.5419C57.4055 23.5419 57.5137 23.5304 57.6204 23.5091C57.7237 23.4878 57.8271 23.4566 57.9272 23.4156C58.0256 23.3746 58.1208 23.3237 58.2094 23.2646C58.2996 23.2056 58.3833 23.1367 58.4588 23.0612C58.5342 22.9857 58.6031 22.9021 58.6622 22.8118C58.7229 22.7232 58.7721 22.6281 58.8131 22.528C58.8558 22.4296 58.887 22.3262 58.9083 22.2212C58.9296 22.1162 58.9395 22.0079 58.9395 21.9013C58.9395 21.7946 58.9296 21.6864 58.9083 21.5814Z" fill="black" fill-opacity="0.05"/>
<path d="M82.3593 5.56033H72.6047C71.6986 5.56033 70.964 6.29484 70.964 7.20096V8.61747H66.3895C65.4834 8.61747 64.7489 9.35198 64.7489 10.2581V10.7303C62.0822 10.4975 61.2051 9.99183 58.7562 8.57958C56.8727 7.49348 54.0261 5.85204 48.8996 3.54712C48.8758 3.53629 48.8519 3.52629 48.8274 3.51677C47.1587 2.86019 42.7853 1.56837 38.1143 3.68526L31.5124 6.04908L25.9476 0.484404C25.3069 -0.15626 24.2681 -0.15626 23.6274 0.484404L5.35775 18.7539C4.76679 19.345 4.65343 20.3699 5.35775 21.0742L36.5767 52.2932C37.0763 52.7929 38.246 52.944 38.897 52.2932L55.5765 35.614C56.0101 35.6514 56.4601 35.6715 56.9265 35.6715C61.2128 35.6715 65.0043 32.7312 67.1734 29.5264H82.3593C83.2654 29.5264 84 28.7919 84 27.8858V7.20096C84 6.29484 83.2654 5.56033 82.3593 5.56033ZM24.7873 3.96466L28.5267 7.70397C27.4151 8.3914 26.13 8.75922 24.7873 8.75922C23.4445 8.75922 22.1596 8.39156 21.048 7.70397L24.7873 3.96466ZM12.5775 23.6535L8.83817 19.914L12.5775 16.1747C13.2649 17.2862 13.6327 18.5713 13.6327 19.914C13.6327 21.2567 13.2651 22.5418 12.5775 23.6535ZM37.737 48.8128L33.9983 45.0741C36.2809 43.6655 39.1927 43.6655 41.4754 45.0741L37.737 48.8128ZM43.8393 42.7106C40.2138 40.0807 35.2601 40.0807 31.6347 42.7106L14.9411 26.017C16.2223 24.2549 16.914 22.1384 16.914 19.914C16.914 17.6895 16.2225 15.5731 14.9411 13.811L18.6845 10.0678C20.4466 11.349 22.563 12.0406 24.7875 12.0406C27.012 12.0406 29.1284 11.349 30.8905 10.0678L34.439 13.6163C33.6733 13.7293 32.9266 13.9817 32.2304 14.3697C31.0544 15.0249 30.1317 16.0062 29.5571 17.1933C27.7065 17.5361 25.9932 18.432 24.6492 19.7759C21.0029 23.4223 21.0029 29.3553 24.6494 33.0018C26.4724 34.8248 28.8672 35.7365 31.2622 35.7365C33.6571 35.7365 36.052 34.825 37.8753 33.0018C39.0614 31.8156 39.8924 30.3577 40.3086 28.7689L45.848 30.6489C45.2244 33.5377 45.8631 36.5768 47.586 38.964L43.8393 42.7106ZM33.8646 26.5812C33.879 26.5864 33.8935 26.5917 33.9081 26.5966L37.1887 27.7101C36.9409 28.8282 36.3803 29.8562 35.5551 30.6816C33.188 33.0483 29.3365 33.0487 26.9697 30.6816C24.6026 28.3147 24.6026 24.4633 26.9697 22.0962C27.5406 21.5249 28.2144 21.0785 28.9486 20.7758C29.2515 23.2961 31.0662 25.5427 33.8646 26.5812ZM49.9499 36.5998C49.3167 35.5679 48.9583 34.3901 48.9017 33.188C49.6876 33.7561 50.648 34.3128 51.7951 34.7546L49.9499 36.5998ZM64.7487 27.2317C63.1937 29.7809 60.1779 32.39 56.9265 32.39C56.3182 32.39 55.7481 32.3467 55.215 32.2695C55.2129 32.2692 55.2108 32.2689 55.2086 32.2686C51.6655 31.7539 49.7596 29.7402 49.1314 28.9428C49.098 28.8936 48.9554 28.7071 48.9342 28.6761C48.7431 28.3345 48.4297 28.0599 48.0301 27.9242L34.9858 23.497C32.9042 22.7157 31.8038 20.9332 32.3081 19.1554C32.3085 19.1542 32.3088 19.1531 32.3091 19.1519C32.3096 19.1506 32.3099 19.1491 32.3103 19.1478C32.5447 18.3292 33.0832 17.6501 33.8273 17.2355C34.5666 16.8236 35.4212 16.7213 36.2363 16.9473L50.9351 21.6052C51.7991 21.8793 52.7211 21.4006 52.9948 20.5368C53.2684 19.673 52.7902 18.751 51.9264 18.4771L40.2361 14.7726L40.1341 14.6706C40.1331 14.6696 40.1321 14.6684 40.131 14.6674L34.0787 8.61518L39.2808 6.75241C39.2983 6.74601 39.32 6.73797 39.3374 6.73092C39.3418 6.72912 39.3503 6.72583 39.3546 6.72403C39.3769 6.71501 39.3989 6.70549 39.4207 6.69548C42.9376 5.07914 46.2805 6.04662 47.5909 6.55619C52.5428 8.78433 55.1858 10.3083 57.1168 11.4218C59.8016 12.9701 61.0952 13.716 64.7487 14.0178V27.2317ZM70.964 26.2448H68.0301V11.8987H70.964V26.2448ZM80.7187 26.2448H74.2453V8.84158H80.7187V26.2448Z" fill="black" fill-opacity="0.05"/>
</svg>
