<svg width="767" height="322" viewBox="0 0 767 322" fill="none" xmlns="http://www.w3.org/2000/svg">
<g filter="url(#filter0_d)">
<rect x="16" y="16" width="735" height="290" fill="#FEFEFE"/>
</g>
<g clip-path="url(#clip0)">
<path d="M104 237H702" stroke="black"/>
<path d="M104 243V237" stroke="black"/>
<path d="M106.559 250.361C106.559 251.631 106.342 252.574 105.908 253.191C105.475 253.809 104.797 254.117 103.875 254.117C102.965 254.117 102.291 253.816 101.854 253.215C101.416 252.609 101.189 251.707 101.174 250.508V249.061C101.174 247.807 101.391 246.875 101.824 246.266C102.258 245.656 102.938 245.352 103.863 245.352C104.781 245.352 105.457 245.646 105.891 246.236C106.324 246.822 106.547 247.729 106.559 248.955V250.361ZM105.475 248.879C105.475 247.961 105.346 247.293 105.088 246.875C104.83 246.453 104.422 246.242 103.863 246.242C103.309 246.242 102.904 246.451 102.65 246.869C102.396 247.287 102.266 247.93 102.258 248.797V250.531C102.258 251.453 102.391 252.135 102.656 252.576C102.926 253.014 103.332 253.232 103.875 253.232C104.41 253.232 104.807 253.025 105.064 252.611C105.326 252.197 105.463 251.545 105.475 250.654V248.879Z" fill="black"/>
<path d="M189.429 243V237" stroke="black"/>
<path d="M190.2 254H189.11V246.775L186.925 247.578V246.594L190.03 245.428H190.2V254Z" fill="black"/>
<path d="M274.857 243V237" stroke="black"/>
<path d="M277.656 254H272.066V253.221L275.019 249.939C275.457 249.443 275.758 249.041 275.922 248.732C276.09 248.42 276.174 248.098 276.174 247.766C276.174 247.32 276.039 246.955 275.769 246.67C275.5 246.385 275.14 246.242 274.691 246.242C274.152 246.242 273.732 246.396 273.431 246.705C273.135 247.01 272.986 247.436 272.986 247.982H271.902C271.902 247.197 272.154 246.562 272.658 246.078C273.166 245.594 273.844 245.352 274.691 245.352C275.484 245.352 276.111 245.561 276.572 245.979C277.033 246.393 277.263 246.945 277.263 247.637C277.263 248.477 276.728 249.477 275.658 250.637L273.373 253.115H277.656V254Z" fill="black"/>
<path d="M360.286 243V237" stroke="black"/>
<path d="M359.071 249.207H359.885C360.397 249.199 360.799 249.064 361.092 248.803C361.385 248.541 361.532 248.188 361.532 247.742C361.532 246.742 361.034 246.242 360.038 246.242C359.569 246.242 359.194 246.377 358.913 246.646C358.635 246.912 358.497 247.266 358.497 247.707H357.413C357.413 247.031 357.659 246.471 358.151 246.025C358.647 245.576 359.276 245.352 360.038 245.352C360.842 245.352 361.473 245.564 361.93 245.99C362.387 246.416 362.616 247.008 362.616 247.766C362.616 248.137 362.495 248.496 362.253 248.844C362.014 249.191 361.688 249.451 361.274 249.623C361.743 249.771 362.104 250.018 362.358 250.361C362.616 250.705 362.745 251.125 362.745 251.621C362.745 252.387 362.495 252.994 361.995 253.443C361.495 253.893 360.844 254.117 360.044 254.117C359.243 254.117 358.59 253.9 358.086 253.467C357.586 253.033 357.336 252.461 357.336 251.75H358.426C358.426 252.199 358.573 252.559 358.866 252.828C359.159 253.098 359.551 253.232 360.044 253.232C360.567 253.232 360.967 253.096 361.245 252.822C361.522 252.549 361.661 252.156 361.661 251.645C361.661 251.148 361.508 250.768 361.204 250.502C360.899 250.236 360.46 250.1 359.885 250.092H359.071V249.207Z" fill="black"/>
<path d="M445.714 243V237" stroke="black"/>
<path d="M447.499 251.135H448.683V252.02H447.499V254H446.41V252.02H442.525V251.381L446.345 245.469H447.499V251.135ZM443.755 251.135H446.41V246.951L446.281 247.186L443.755 251.135Z" fill="black"/>
<path d="M531.143 243V237" stroke="black"/>
<path d="M528.85 249.723L529.283 245.469H533.655V246.471H530.203L529.946 248.797C530.364 248.551 530.838 248.428 531.369 248.428C532.147 248.428 532.764 248.686 533.221 249.201C533.678 249.713 533.906 250.406 533.906 251.281C533.906 252.16 533.668 252.854 533.192 253.361C532.719 253.865 532.057 254.117 531.205 254.117C530.451 254.117 529.836 253.908 529.36 253.49C528.883 253.072 528.612 252.494 528.545 251.756H529.571C529.637 252.244 529.811 252.613 530.092 252.863C530.373 253.109 530.744 253.232 531.205 253.232C531.709 253.232 532.104 253.061 532.389 252.717C532.678 252.373 532.823 251.898 532.823 251.293C532.823 250.723 532.666 250.266 532.354 249.922C532.045 249.574 531.633 249.4 531.117 249.4C530.645 249.4 530.274 249.504 530.004 249.711L529.717 249.945L528.85 249.723Z" fill="black"/>
<path d="M616.571 243V237" stroke="black"/>
<path d="M618.034 245.463V246.383H617.835C616.991 246.398 616.319 246.648 615.819 247.133C615.319 247.617 615.03 248.299 614.952 249.178C615.401 248.662 616.015 248.404 616.792 248.404C617.534 248.404 618.126 248.666 618.568 249.189C619.013 249.713 619.235 250.389 619.235 251.217C619.235 252.096 618.995 252.799 618.515 253.326C618.038 253.854 617.398 254.117 616.593 254.117C615.776 254.117 615.114 253.805 614.607 253.18C614.099 252.551 613.845 251.742 613.845 250.754V250.338C613.845 248.768 614.179 247.568 614.847 246.74C615.519 245.908 616.517 245.482 617.841 245.463H618.034ZM616.61 249.307C616.239 249.307 615.898 249.418 615.585 249.641C615.273 249.863 615.056 250.143 614.935 250.479V250.877C614.935 251.58 615.093 252.146 615.409 252.576C615.726 253.006 616.12 253.221 616.593 253.221C617.081 253.221 617.464 253.041 617.741 252.682C618.023 252.322 618.163 251.852 618.163 251.27C618.163 250.684 618.021 250.211 617.735 249.852C617.454 249.488 617.079 249.307 616.61 249.307Z" fill="black"/>
<path d="M702 243V237" stroke="black"/>
<path d="M704.717 246.078L701.184 254H700.047L703.568 246.359H698.951V245.469H704.717V246.078Z" fill="black"/>
<path d="M104 77V237" stroke="black"/>
<path d="M98 237H104" stroke="black"/>
<path d="M92.0586 232.361C92.0586 233.631 91.8418 234.574 91.4082 235.191C90.9746 235.809 90.2969 236.117 89.375 236.117C88.4648 236.117 87.791 235.816 87.3535 235.215C86.916 234.609 86.6895 233.707 86.6738 232.508V231.061C86.6738 229.807 86.8906 228.875 87.3242 228.266C87.7578 227.656 88.4375 227.352 89.3633 227.352C90.2812 227.352 90.957 227.646 91.3906 228.236C91.8242 228.822 92.0469 229.729 92.0586 230.955V232.361ZM90.9746 230.879C90.9746 229.961 90.8457 229.293 90.5879 228.875C90.3301 228.453 89.9219 228.242 89.3633 228.242C88.8086 228.242 88.4043 228.451 88.1504 228.869C87.8965 229.287 87.7656 229.93 87.7578 230.797V232.531C87.7578 233.453 87.8906 234.135 88.1562 234.576C88.4258 235.014 88.832 235.232 89.375 235.232C89.9102 235.232 90.3066 235.025 90.5645 234.611C90.8262 234.197 90.9629 233.545 90.9746 232.654V230.879Z" fill="black"/>
<path d="M98 197H104" stroke="black"/>
<path d="M78.2988 196H72.709V195.221L75.6621 191.939C76.0996 191.443 76.4004 191.041 76.5645 190.732C76.7324 190.42 76.8164 190.098 76.8164 189.766C76.8164 189.32 76.6816 188.955 76.4121 188.67C76.1426 188.385 75.7832 188.242 75.334 188.242C74.7949 188.242 74.375 188.396 74.0742 188.705C73.7773 189.01 73.6289 189.436 73.6289 189.982H72.5449C72.5449 189.197 72.7969 188.562 73.3008 188.078C73.8086 187.594 74.4863 187.352 75.334 187.352C76.127 187.352 76.7539 187.561 77.2148 187.979C77.6758 188.393 77.9062 188.945 77.9062 189.637C77.9062 190.477 77.3711 191.477 76.3008 192.637L74.0156 195.115H78.2988V196ZM79.9453 191.723L80.3789 187.469H84.75V188.471H81.2988L81.041 190.797C81.459 190.551 81.9336 190.428 82.4648 190.428C83.2422 190.428 83.8594 190.686 84.3164 191.201C84.7734 191.713 85.002 192.406 85.002 193.281C85.002 194.16 84.7637 194.854 84.2871 195.361C83.8145 195.865 83.1523 196.117 82.3008 196.117C81.5469 196.117 80.9316 195.908 80.4551 195.49C79.9785 195.072 79.707 194.494 79.6406 193.756H80.666C80.7324 194.244 80.9062 194.613 81.1875 194.863C81.4688 195.109 81.8398 195.232 82.3008 195.232C82.8047 195.232 83.1992 195.061 83.4844 194.717C83.7734 194.373 83.918 193.898 83.918 193.293C83.918 192.723 83.7617 192.266 83.4492 191.922C83.1406 191.574 82.7285 191.4 82.2129 191.4C81.7402 191.4 81.3691 191.504 81.0996 191.711L80.8125 191.945L79.9453 191.723ZM91.5352 192.361C91.5352 193.631 91.3184 194.574 90.8848 195.191C90.4512 195.809 89.7734 196.117 88.8516 196.117C87.9414 196.117 87.2676 195.816 86.8301 195.215C86.3926 194.609 86.166 193.707 86.1504 192.508V191.061C86.1504 189.807 86.3672 188.875 86.8008 188.266C87.2344 187.656 87.9141 187.352 88.8398 187.352C89.7578 187.352 90.4336 187.646 90.8672 188.236C91.3008 188.822 91.5234 189.729 91.5352 190.955V192.361ZM90.4512 190.879C90.4512 189.961 90.3223 189.293 90.0645 188.875C89.8066 188.453 89.3984 188.242 88.8398 188.242C88.2852 188.242 87.8809 188.451 87.627 188.869C87.373 189.287 87.2422 189.93 87.2344 190.797V192.531C87.2344 193.453 87.3672 194.135 87.6328 194.576C87.9023 195.014 88.3086 195.232 88.8516 195.232C89.3867 195.232 89.7832 195.025 90.041 194.611C90.3027 194.197 90.4395 193.545 90.4512 192.654V190.879Z" fill="black"/>
<path d="M98 157H104" stroke="black"/>
<path d="M73.207 151.723L73.6406 147.469H78.0117V148.471H74.5605L74.3027 150.797C74.7207 150.551 75.1953 150.428 75.7266 150.428C76.5039 150.428 77.1211 150.686 77.5781 151.201C78.0352 151.713 78.2637 152.406 78.2637 153.281C78.2637 154.16 78.0254 154.854 77.5488 155.361C77.0762 155.865 76.4141 156.117 75.5625 156.117C74.8086 156.117 74.1934 155.908 73.7168 155.49C73.2402 155.072 72.9688 154.494 72.9023 153.756H73.9277C73.9941 154.244 74.168 154.613 74.4492 154.863C74.7305 155.109 75.1016 155.232 75.5625 155.232C76.0664 155.232 76.4609 155.061 76.7461 154.717C77.0352 154.373 77.1797 153.898 77.1797 153.293C77.1797 152.723 77.0234 152.266 76.7109 151.922C76.4023 151.574 75.9902 151.4 75.4746 151.4C75.002 151.4 74.6309 151.504 74.3613 151.711L74.0742 151.945L73.207 151.723ZM84.7969 152.361C84.7969 153.631 84.5801 154.574 84.1465 155.191C83.7129 155.809 83.0352 156.117 82.1133 156.117C81.2031 156.117 80.5293 155.816 80.0918 155.215C79.6543 154.609 79.4277 153.707 79.4121 152.508V151.061C79.4121 149.807 79.6289 148.875 80.0625 148.266C80.4961 147.656 81.1758 147.352 82.1016 147.352C83.0195 147.352 83.6953 147.646 84.1289 148.236C84.5625 148.822 84.7852 149.729 84.7969 150.955V152.361ZM83.7129 150.879C83.7129 149.961 83.584 149.293 83.3262 148.875C83.0684 148.453 82.6602 148.242 82.1016 148.242C81.5469 148.242 81.1426 148.451 80.8887 148.869C80.6348 149.287 80.5039 149.93 80.4961 150.797V152.531C80.4961 153.453 80.6289 154.135 80.8945 154.576C81.1641 155.014 81.5703 155.232 82.1133 155.232C82.6484 155.232 83.0449 155.025 83.3027 154.611C83.5645 154.197 83.7012 153.545 83.7129 152.654V150.879ZM91.5352 152.361C91.5352 153.631 91.3184 154.574 90.8848 155.191C90.4512 155.809 89.7734 156.117 88.8516 156.117C87.9414 156.117 87.2676 155.816 86.8301 155.215C86.3926 154.609 86.166 153.707 86.1504 152.508V151.061C86.1504 149.807 86.3672 148.875 86.8008 148.266C87.2344 147.656 87.9141 147.352 88.8398 147.352C89.7578 147.352 90.4336 147.646 90.8672 148.236C91.3008 148.822 91.5234 149.729 91.5352 150.955V152.361ZM90.4512 150.879C90.4512 149.961 90.3223 149.293 90.0645 148.875C89.8066 148.453 89.3984 148.242 88.8398 148.242C88.2852 148.242 87.8809 148.451 87.627 148.869C87.373 149.287 87.2422 149.93 87.2344 150.797V152.531C87.2344 153.453 87.3672 154.135 87.6328 154.576C87.9023 155.014 88.3086 155.232 88.8516 155.232C89.3867 155.232 89.7832 155.025 90.041 154.611C90.3027 154.197 90.4395 153.545 90.4512 152.654V150.879Z" fill="black"/>
<path d="M98 117H104" stroke="black"/>
<path d="M78.2168 108.078L74.6836 116H73.5469L77.0684 108.359H72.4512V107.469H78.2168V108.078ZM79.9453 111.723L80.3789 107.469H84.75V108.471H81.2988L81.041 110.797C81.459 110.551 81.9336 110.428 82.4648 110.428C83.2422 110.428 83.8594 110.686 84.3164 111.201C84.7734 111.713 85.002 112.406 85.002 113.281C85.002 114.16 84.7637 114.854 84.2871 115.361C83.8145 115.865 83.1523 116.117 82.3008 116.117C81.5469 116.117 80.9316 115.908 80.4551 115.49C79.9785 115.072 79.707 114.494 79.6406 113.756H80.666C80.7324 114.244 80.9062 114.613 81.1875 114.863C81.4688 115.109 81.8398 115.232 82.3008 115.232C82.8047 115.232 83.1992 115.061 83.4844 114.717C83.7734 114.373 83.918 113.898 83.918 113.293C83.918 112.723 83.7617 112.266 83.4492 111.922C83.1406 111.574 82.7285 111.4 82.2129 111.4C81.7402 111.4 81.3691 111.504 81.0996 111.711L80.8125 111.945L79.9453 111.723ZM91.5352 112.361C91.5352 113.631 91.3184 114.574 90.8848 115.191C90.4512 115.809 89.7734 116.117 88.8516 116.117C87.9414 116.117 87.2676 115.816 86.8301 115.215C86.3926 114.609 86.166 113.707 86.1504 112.508V111.061C86.1504 109.807 86.3672 108.875 86.8008 108.266C87.2344 107.656 87.9141 107.352 88.8398 107.352C89.7578 107.352 90.4336 107.646 90.8672 108.236C91.3008 108.822 91.5234 109.729 91.5352 110.955V112.361ZM90.4512 110.879C90.4512 109.961 90.3223 109.293 90.0645 108.875C89.8066 108.453 89.3984 108.242 88.8398 108.242C88.2852 108.242 87.8809 108.451 87.627 108.869C87.373 109.287 87.2422 109.93 87.2344 110.797V112.531C87.2344 113.453 87.3672 114.135 87.6328 114.576C87.9023 115.014 88.3086 115.232 88.8516 115.232C89.3867 115.232 89.7832 115.025 90.041 114.611C90.3027 114.197 90.4395 113.545 90.4512 112.654V110.879Z" fill="black"/>
<path d="M98 77H104" stroke="black"/>
<path d="M70.2715 80H69.1816V72.7754L66.9961 73.5781V72.5938L70.1016 71.4277H70.2715V80ZM78.7969 76.3613C78.7969 77.6309 78.5801 78.5742 78.1465 79.1914C77.7129 79.8086 77.0352 80.1172 76.1133 80.1172C75.2031 80.1172 74.5293 79.8164 74.0918 79.2148C73.6543 78.6094 73.4277 77.707 73.4121 76.5078V75.0605C73.4121 73.8066 73.6289 72.875 74.0625 72.2656C74.4961 71.6562 75.1758 71.3516 76.1016 71.3516C77.0195 71.3516 77.6953 71.6465 78.1289 72.2363C78.5625 72.8223 78.7852 73.7285 78.7969 74.9551V76.3613ZM77.7129 74.8789C77.7129 73.9609 77.584 73.293 77.3262 72.875C77.0684 72.4531 76.6602 72.2422 76.1016 72.2422C75.5469 72.2422 75.1426 72.4512 74.8887 72.8691C74.6348 73.2871 74.5039 73.9297 74.4961 74.7969V76.5312C74.4961 77.4531 74.6289 78.1348 74.8945 78.5762C75.1641 79.0137 75.5703 79.2324 76.1133 79.2324C76.6484 79.2324 77.0449 79.0254 77.3027 78.6113C77.5645 78.1973 77.7012 77.5449 77.7129 76.6543V74.8789ZM85.5352 76.3613C85.5352 77.6309 85.3184 78.5742 84.8848 79.1914C84.4512 79.8086 83.7734 80.1172 82.8516 80.1172C81.9414 80.1172 81.2676 79.8164 80.8301 79.2148C80.3926 78.6094 80.166 77.707 80.1504 76.5078V75.0605C80.1504 73.8066 80.3672 72.875 80.8008 72.2656C81.2344 71.6562 81.9141 71.3516 82.8398 71.3516C83.7578 71.3516 84.4336 71.6465 84.8672 72.2363C85.3008 72.8223 85.5234 73.7285 85.5352 74.9551V76.3613ZM84.4512 74.8789C84.4512 73.9609 84.3223 73.293 84.0645 72.875C83.8066 72.4531 83.3984 72.2422 82.8398 72.2422C82.2852 72.2422 81.8809 72.4512 81.627 72.8691C81.373 73.2871 81.2422 73.9297 81.2344 74.7969V76.5312C81.2344 77.4531 81.3672 78.1348 81.6328 78.5762C81.9023 79.0137 82.3086 79.2324 82.8516 79.2324C83.3867 79.2324 83.7832 79.0254 84.041 78.6113C84.3027 78.1973 84.4395 77.5449 84.4512 76.6543V74.8789ZM92.2734 76.3613C92.2734 77.6309 92.0566 78.5742 91.623 79.1914C91.1895 79.8086 90.5117 80.1172 89.5898 80.1172C88.6797 80.1172 88.0059 79.8164 87.5684 79.2148C87.1309 78.6094 86.9043 77.707 86.8887 76.5078V75.0605C86.8887 73.8066 87.1055 72.875 87.5391 72.2656C87.9727 71.6562 88.6523 71.3516 89.5781 71.3516C90.4961 71.3516 91.1719 71.6465 91.6055 72.2363C92.0391 72.8223 92.2617 73.7285 92.2734 74.9551V76.3613ZM91.1895 74.8789C91.1895 73.9609 91.0605 73.293 90.8027 72.875C90.5449 72.4531 90.1367 72.2422 89.5781 72.2422C89.0234 72.2422 88.6191 72.4512 88.3652 72.8691C88.1113 73.2871 87.9805 73.9297 87.9727 74.7969V76.5312C87.9727 77.4531 88.1055 78.1348 88.3711 78.5762C88.6406 79.0137 89.0469 79.2324 89.5898 79.2324C90.125 79.2324 90.5215 79.0254 90.7793 78.6113C91.041 78.1973 91.1777 77.5449 91.1895 76.6543V74.8789Z" fill="black"/>
<path d="M104 237H702" stroke="#CCCCCC"/>
<path d="M104 197H702" stroke="#CCCCCC"/>
<path d="M104 157H702" stroke="#CCCCCC"/>
<path d="M104 117H702" stroke="#CCCCCC"/>
<path d="M104 77H702" stroke="#CCCCCC"/>
<path d="M104 77V237" stroke="#CCCCCC"/>
<path d="M189.429 77V237" stroke="#CCCCCC"/>
<path d="M274.857 77V237" stroke="#CCCCCC"/>
<path d="M360.286 77V237" stroke="#CCCCCC"/>
<path d="M445.714 77V237" stroke="#CCCCCC"/>
<path d="M531.143 77V237" stroke="#CCCCCC"/>
<path d="M616.571 77V237" stroke="#CCCCCC"/>
<path d="M702 77V237" stroke="#CCCCCC"/>
<path d="M104 224.2L189.429 158.6L274.857 119.08L360.286 217.16L445.714 117L531.143 164.36L616.571 155.4L702 133.64" stroke="#4C5620"/>
<path d="M104 227.2C105.657 227.2 107 225.857 107 224.2C107 222.543 105.657 221.2 104 221.2C102.343 221.2 101 222.543 101 224.2C101 225.857 102.343 227.2 104 227.2Z" fill="white" stroke="#4C5620"/>
<path d="M189.429 161.6C191.085 161.6 192.429 160.257 192.429 158.6C192.429 156.943 191.085 155.6 189.429 155.6C187.772 155.6 186.429 156.943 186.429 158.6C186.429 160.257 187.772 161.6 189.429 161.6Z" fill="white" stroke="#4C5620"/>
<path d="M274.857 122.08C276.514 122.08 277.857 120.737 277.857 119.08C277.857 117.423 276.514 116.08 274.857 116.08C273.2 116.08 271.857 117.423 271.857 119.08C271.857 120.737 273.2 122.08 274.857 122.08Z" fill="white" stroke="#4C5620"/>
<path d="M360.286 220.16C361.943 220.16 363.286 218.817 363.286 217.16C363.286 215.503 361.943 214.16 360.286 214.16C358.629 214.16 357.286 215.503 357.286 217.16C357.286 218.817 358.629 220.16 360.286 220.16Z" fill="white" stroke="#4C5620"/>
<path d="M445.714 120C447.371 120 448.714 118.657 448.714 117C448.714 115.343 447.371 114 445.714 114C444.057 114 442.714 115.343 442.714 117C442.714 118.657 444.057 120 445.714 120Z" fill="white" stroke="#4C5620"/>
<path d="M531.143 167.36C532.8 167.36 534.143 166.017 534.143 164.36C534.143 162.703 532.8 161.36 531.143 161.36C529.486 161.36 528.143 162.703 528.143 164.36C528.143 166.017 529.486 167.36 531.143 167.36Z" fill="white" stroke="#4C5620"/>
<path d="M616.571 158.4C618.228 158.4 619.571 157.057 619.571 155.4C619.571 153.743 618.228 152.4 616.571 152.4C614.915 152.4 613.571 153.743 613.571 155.4C613.571 157.057 614.915 158.4 616.571 158.4Z" fill="white" stroke="#4C5620"/>
<path d="M702 136.64C703.657 136.64 705 135.297 705 133.64C705 131.983 703.657 130.64 702 130.64C700.343 130.64 699 131.983 699 133.64C699 135.297 700.343 136.64 702 136.64Z" fill="white" stroke="#4C5620"/>
<path d="M104 236.2L189.429 108.2L274.857 213.96L360.286 203.08L445.714 148.36L531.143 159.72L616.571 204.36L702 140.36" stroke="#E9411C"/>
<path d="M104 239.2C105.657 239.2 107 237.857 107 236.2C107 234.543 105.657 233.2 104 233.2C102.343 233.2 101 234.543 101 236.2C101 237.857 102.343 239.2 104 239.2Z" fill="white" stroke="#E9411C"/>
<path d="M189.429 111.2C191.085 111.2 192.429 109.857 192.429 108.2C192.429 106.543 191.085 105.2 189.429 105.2C187.772 105.2 186.429 106.543 186.429 108.2C186.429 109.857 187.772 111.2 189.429 111.2Z" fill="white" stroke="#E9411C"/>
<path d="M274.857 216.96C276.514 216.96 277.857 215.617 277.857 213.96C277.857 212.303 276.514 210.96 274.857 210.96C273.2 210.96 271.857 212.303 271.857 213.96C271.857 215.617 273.2 216.96 274.857 216.96Z" fill="white" stroke="#E9411C"/>
<path d="M360.286 206.08C361.943 206.08 363.286 204.737 363.286 203.08C363.286 201.423 361.943 200.08 360.286 200.08C358.629 200.08 357.286 201.423 357.286 203.08C357.286 204.737 358.629 206.08 360.286 206.08Z" fill="white" stroke="#E9411C"/>
<path d="M445.714 151.36C447.371 151.36 448.714 150.017 448.714 148.36C448.714 146.703 447.371 145.36 445.714 145.36C444.057 145.36 442.714 146.703 442.714 148.36C442.714 150.017 444.057 151.36 445.714 151.36Z" fill="white" stroke="#E9411C"/>
<path d="M531.143 162.72C532.8 162.72 534.143 161.377 534.143 159.72C534.143 158.063 532.8 156.72 531.143 156.72C529.486 156.72 528.143 158.063 528.143 159.72C528.143 161.377 529.486 162.72 531.143 162.72Z" fill="white" stroke="#E9411C"/>
<path d="M616.571 207.36C618.228 207.36 619.571 206.017 619.571 204.36C619.571 202.703 618.228 201.36 616.571 201.36C614.915 201.36 613.571 202.703 613.571 204.36C613.571 206.017 614.915 207.36 616.571 207.36Z" fill="white" stroke="#E9411C"/>
<path d="M702 143.36C703.657 143.36 705 142.017 705 140.36C705 138.703 703.657 137.36 702 137.36C700.343 137.36 699 138.703 699 140.36C699 142.017 700.343 143.36 702 143.36Z" fill="white" stroke="#E9411C"/>
</g>
<path d="M48.5781 45.5234H45.0938V55H42.75V45.5234H39.3125V43.625H48.5781V45.5234ZM47.7969 50.6953C47.7969 49.8568 47.9583 49.1094 48.2812 48.4531C48.6042 47.7969 49.0677 47.2891 49.6719 46.9297C50.2812 46.5703 50.987 46.3906 51.7891 46.3906C52.9297 46.3906 53.8594 46.7396 54.5781 47.4375C55.3021 48.1354 55.7057 49.0833 55.7891 50.2812L55.8047 50.8594C55.8047 52.1562 55.4427 53.1979 54.7188 53.9844C53.9948 54.7656 53.0234 55.1562 51.8047 55.1562C50.5859 55.1562 49.612 54.7656 48.8828 53.9844C48.1589 53.2031 47.7969 52.1406 47.7969 50.7969V50.6953ZM50.0547 50.8594C50.0547 51.6615 50.2057 52.276 50.5078 52.7031C50.8099 53.125 51.2422 53.3359 51.8047 53.3359C52.3516 53.3359 52.7786 53.1276 53.0859 52.7109C53.3932 52.2891 53.5469 51.6172 53.5469 50.6953C53.5469 49.9089 53.3932 49.2995 53.0859 48.8672C52.7786 48.4349 52.3464 48.2188 51.7891 48.2188C51.237 48.2188 50.8099 48.4349 50.5078 48.8672C50.2057 49.2943 50.0547 49.9583 50.0547 50.8594ZM56.8438 50.7109C56.8438 49.3932 57.138 48.3438 57.7266 47.5625C58.3203 46.7812 59.1302 46.3906 60.1562 46.3906C60.9792 46.3906 61.6589 46.6979 62.1953 47.3125V43H64.4609V55H62.4219L62.3125 54.1016C61.75 54.8047 61.026 55.1562 60.1406 55.1562C59.1458 55.1562 58.3464 54.7656 57.7422 53.9844C57.1432 53.1979 56.8438 52.1068 56.8438 50.7109ZM59.1016 50.875C59.1016 51.6667 59.2396 52.2734 59.5156 52.6953C59.7917 53.1172 60.1927 53.3281 60.7188 53.3281C61.4167 53.3281 61.9089 53.0339 62.1953 52.4453V49.1094C61.9141 48.5208 61.4271 48.2266 60.7344 48.2266C59.6458 48.2266 59.1016 49.1094 59.1016 50.875ZM71.1094 55C71.0052 54.7969 70.9297 54.5443 70.8828 54.2422C70.3359 54.8516 69.625 55.1562 68.75 55.1562C67.9219 55.1562 67.2344 54.9167 66.6875 54.4375C66.1458 53.9583 65.875 53.3542 65.875 52.625C65.875 51.7292 66.2057 51.0417 66.8672 50.5625C67.5339 50.0833 68.4948 49.8411 69.75 49.8359H70.7891V49.3516C70.7891 48.9609 70.6875 48.6484 70.4844 48.4141C70.2865 48.1797 69.9714 48.0625 69.5391 48.0625C69.1589 48.0625 68.8594 48.1536 68.6406 48.3359C68.4271 48.5182 68.3203 48.7682 68.3203 49.0859H66.0625C66.0625 48.5964 66.2135 48.1432 66.5156 47.7266C66.8177 47.3099 67.2448 46.9844 67.7969 46.75C68.349 46.5104 68.9688 46.3906 69.6562 46.3906C70.6979 46.3906 71.5234 46.6536 72.1328 47.1797C72.7474 47.7005 73.0547 48.4349 73.0547 49.3828V53.0469C73.0599 53.849 73.1719 54.4557 73.3906 54.8672V55H71.1094ZM69.2422 53.4297C69.5755 53.4297 69.8828 53.3568 70.1641 53.2109C70.4453 53.0599 70.6536 52.8594 70.7891 52.6094V51.1562H69.9453C68.8151 51.1562 68.2135 51.5469 68.1406 52.3281L68.1328 52.4609C68.1328 52.7422 68.2318 52.974 68.4297 53.1562C68.6276 53.3385 68.8984 53.4297 69.2422 53.4297ZM77.8203 51.8047L79.3828 46.5469H81.8047L78.4062 56.3125L78.2188 56.7578C77.7135 57.862 76.8802 58.4141 75.7188 58.4141C75.3906 58.4141 75.0573 58.3646 74.7188 58.2656V56.5547L75.0625 56.5625C75.4896 56.5625 75.8073 56.4974 76.0156 56.3672C76.2292 56.237 76.3958 56.0208 76.5156 55.7188L76.7812 55.0234L73.8203 46.5469H76.25L77.8203 51.8047ZM89.3203 55H86.9766V43.625H89.3203V55ZM93.4297 46.5469L93.5 47.5234C94.1042 46.7682 94.9141 46.3906 95.9297 46.3906C96.8255 46.3906 97.4922 46.6536 97.9297 47.1797C98.3672 47.7057 98.5911 48.4922 98.6016 49.5391V55H96.3438V49.5938C96.3438 49.1146 96.2396 48.7682 96.0312 48.5547C95.8229 48.3359 95.4766 48.2266 94.9922 48.2266C94.3568 48.2266 93.8802 48.4974 93.5625 49.0391V55H91.3047V46.5469H93.4297ZM103.836 53.3359C104.253 53.3359 104.591 53.2214 104.852 52.9922C105.112 52.763 105.247 52.4583 105.258 52.0781H107.375C107.37 52.651 107.214 53.1771 106.906 53.6562C106.599 54.1302 106.177 54.5 105.641 54.7656C105.109 55.026 104.521 55.1562 103.875 55.1562C102.667 55.1562 101.714 54.7734 101.016 54.0078C100.318 53.237 99.9688 52.1745 99.9688 50.8203V50.6719C99.9688 49.3698 100.315 48.3307 101.008 47.5547C101.701 46.7786 102.651 46.3906 103.859 46.3906C104.917 46.3906 105.763 46.6927 106.398 47.2969C107.039 47.8958 107.365 48.6953 107.375 49.6953H105.258C105.247 49.2578 105.112 48.9036 104.852 48.6328C104.591 48.3568 104.247 48.2188 103.82 48.2188C103.294 48.2188 102.896 48.4115 102.625 48.7969C102.359 49.1771 102.227 49.7969 102.227 50.6562V50.8906C102.227 51.7604 102.359 52.3854 102.625 52.7656C102.891 53.1458 103.294 53.3359 103.836 53.3359ZM108.312 50.6953C108.312 49.8568 108.474 49.1094 108.797 48.4531C109.12 47.7969 109.583 47.2891 110.188 46.9297C110.797 46.5703 111.503 46.3906 112.305 46.3906C113.445 46.3906 114.375 46.7396 115.094 47.4375C115.818 48.1354 116.221 49.0833 116.305 50.2812L116.32 50.8594C116.32 52.1562 115.958 53.1979 115.234 53.9844C114.51 54.7656 113.539 55.1562 112.32 55.1562C111.102 55.1562 110.128 54.7656 109.398 53.9844C108.674 53.2031 108.312 52.1406 108.312 50.7969V50.6953ZM110.57 50.8594C110.57 51.6615 110.721 52.276 111.023 52.7031C111.326 53.125 111.758 53.3359 112.32 53.3359C112.867 53.3359 113.294 53.1276 113.602 52.7109C113.909 52.2891 114.062 51.6172 114.062 50.6953C114.062 49.9089 113.909 49.2995 113.602 48.8672C113.294 48.4349 112.862 48.2188 112.305 48.2188C111.753 48.2188 111.326 48.4349 111.023 48.8672C110.721 49.2943 110.57 49.9583 110.57 50.8594ZM119.828 46.5469L119.898 47.4922C120.497 46.7578 121.307 46.3906 122.328 46.3906C123.417 46.3906 124.164 46.8203 124.57 47.6797C125.164 46.8203 126.01 46.3906 127.109 46.3906C128.026 46.3906 128.708 46.6589 129.156 47.1953C129.604 47.7266 129.828 48.5286 129.828 49.6016V55H127.562V49.6094C127.562 49.1302 127.469 48.7812 127.281 48.5625C127.094 48.3385 126.763 48.2266 126.289 48.2266C125.612 48.2266 125.143 48.5495 124.883 49.1953L124.891 55H122.633V49.6172C122.633 49.1276 122.536 48.7734 122.344 48.5547C122.151 48.3359 121.823 48.2266 121.359 48.2266C120.719 48.2266 120.255 48.4922 119.969 49.0234V55H117.711V46.5469H119.828ZM135.461 55.1562C134.221 55.1562 133.211 54.776 132.43 54.0156C131.654 53.2552 131.266 52.2422 131.266 50.9766V50.7578C131.266 49.9089 131.43 49.151 131.758 48.4844C132.086 47.8125 132.549 47.2969 133.148 46.9375C133.753 46.5729 134.44 46.3906 135.211 46.3906C136.367 46.3906 137.276 46.7552 137.938 47.4844C138.604 48.2135 138.938 49.2474 138.938 50.5859V51.5078H133.555C133.628 52.0599 133.846 52.5026 134.211 52.8359C134.581 53.1693 135.047 53.3359 135.609 53.3359C136.479 53.3359 137.159 53.0208 137.648 52.3906L138.758 53.6328C138.419 54.112 137.961 54.487 137.383 54.7578C136.805 55.0234 136.164 55.1562 135.461 55.1562ZM135.203 48.2188C134.755 48.2188 134.391 48.3698 134.109 48.6719C133.833 48.974 133.656 49.4062 133.578 49.9688H136.719V49.7891C136.708 49.2891 136.573 48.9036 136.312 48.6328C136.052 48.3568 135.682 48.2188 135.203 48.2188ZM148.602 51.0391H144.203V49.2188H148.602V51.0391ZM161.391 50.0703H156.891V53.1172H162.172V55H154.547V43.625H162.156V45.5234H156.891V48.2344H161.391V50.0703ZM166.617 49.0703L168.039 46.5469H170.453L168.047 50.6875L170.555 55H168.133L166.625 52.3438L165.125 55H162.695L165.203 50.6875L162.805 46.5469H165.227L166.617 49.0703ZM179.148 50.8516C179.148 52.1536 178.852 53.1979 178.258 53.9844C177.669 54.7656 176.872 55.1562 175.867 55.1562C175.013 55.1562 174.323 54.8594 173.797 54.2656V58.25H171.539V46.5469H173.633L173.711 47.375C174.258 46.7188 174.971 46.3906 175.852 46.3906C176.893 46.3906 177.703 46.776 178.281 47.5469C178.859 48.3177 179.148 49.3802 179.148 50.7344V50.8516ZM176.891 50.6875C176.891 49.901 176.75 49.2943 176.469 48.8672C176.193 48.4401 175.789 48.2266 175.258 48.2266C174.549 48.2266 174.062 48.4974 173.797 49.0391V52.5C174.073 53.0573 174.565 53.3359 175.273 53.3359C176.352 53.3359 176.891 52.4531 176.891 50.6875ZM184.445 55.1562C183.206 55.1562 182.195 54.776 181.414 54.0156C180.638 53.2552 180.25 52.2422 180.25 50.9766V50.7578C180.25 49.9089 180.414 49.151 180.742 48.4844C181.07 47.8125 181.534 47.2969 182.133 46.9375C182.737 46.5729 183.424 46.3906 184.195 46.3906C185.352 46.3906 186.26 46.7552 186.922 47.4844C187.589 48.2135 187.922 49.2474 187.922 50.5859V51.5078H182.539C182.612 52.0599 182.831 52.5026 183.195 52.8359C183.565 53.1693 184.031 53.3359 184.594 53.3359C185.464 53.3359 186.143 53.0208 186.633 52.3906L187.742 53.6328C187.404 54.112 186.945 54.487 186.367 54.7578C185.789 55.0234 185.148 55.1562 184.445 55.1562ZM184.188 48.2188C183.74 48.2188 183.375 48.3698 183.094 48.6719C182.818 48.974 182.641 49.4062 182.562 49.9688H185.703V49.7891C185.693 49.2891 185.557 48.9036 185.297 48.6328C185.036 48.3568 184.667 48.2188 184.188 48.2188ZM191.289 46.5469L191.359 47.5234C191.964 46.7682 192.773 46.3906 193.789 46.3906C194.685 46.3906 195.352 46.6536 195.789 47.1797C196.227 47.7057 196.451 48.4922 196.461 49.5391V55H194.203V49.5938C194.203 49.1146 194.099 48.7682 193.891 48.5547C193.682 48.3359 193.336 48.2266 192.852 48.2266C192.216 48.2266 191.74 48.4974 191.422 49.0391V55H189.164V46.5469H191.289ZM202.758 52.6641C202.758 52.388 202.62 52.1719 202.344 52.0156C202.073 51.8542 201.635 51.7109 201.031 51.5859C199.021 51.1641 198.016 50.3099 198.016 49.0234C198.016 48.2734 198.326 47.6484 198.945 47.1484C199.57 46.6432 200.385 46.3906 201.391 46.3906C202.464 46.3906 203.32 46.6432 203.961 47.1484C204.607 47.6536 204.93 48.3099 204.93 49.1172H202.672C202.672 48.7943 202.568 48.5286 202.359 48.3203C202.151 48.1068 201.826 48 201.383 48C201.003 48 200.708 48.0859 200.5 48.2578C200.292 48.4297 200.188 48.6484 200.188 48.9141C200.188 49.1641 200.305 49.3672 200.539 49.5234C200.779 49.6745 201.18 49.8073 201.742 49.9219C202.305 50.0312 202.779 50.1562 203.164 50.2969C204.357 50.7344 204.953 51.4922 204.953 52.5703C204.953 53.3411 204.622 53.9661 203.961 54.4453C203.299 54.9193 202.445 55.1562 201.398 55.1562C200.69 55.1562 200.06 55.0312 199.508 54.7812C198.961 54.526 198.531 54.1797 198.219 53.7422C197.906 53.2995 197.75 52.8229 197.75 52.3125H199.891C199.911 52.7135 200.06 53.0208 200.336 53.2344C200.612 53.4479 200.982 53.5547 201.445 53.5547C201.878 53.5547 202.203 53.474 202.422 53.3125C202.646 53.1458 202.758 52.9297 202.758 52.6641ZM210.305 55.1562C209.065 55.1562 208.055 54.776 207.273 54.0156C206.497 53.2552 206.109 52.2422 206.109 50.9766V50.7578C206.109 49.9089 206.273 49.151 206.602 48.4844C206.93 47.8125 207.393 47.2969 207.992 46.9375C208.596 46.5729 209.284 46.3906 210.055 46.3906C211.211 46.3906 212.12 46.7552 212.781 47.4844C213.448 48.2135 213.781 49.2474 213.781 50.5859V51.5078H208.398C208.471 52.0599 208.69 52.5026 209.055 52.8359C209.424 53.1693 209.891 53.3359 210.453 53.3359C211.323 53.3359 212.003 53.0208 212.492 52.3906L213.602 53.6328C213.263 54.112 212.805 54.487 212.227 54.7578C211.648 55.0234 211.008 55.1562 210.305 55.1562ZM210.047 48.2188C209.599 48.2188 209.234 48.3698 208.953 48.6719C208.677 48.974 208.5 49.4062 208.422 49.9688H211.562V49.7891C211.552 49.2891 211.417 48.9036 211.156 48.6328C210.896 48.3568 210.526 48.2188 210.047 48.2188Z" fill="black" fill-opacity="0.6"/>
<defs>
<filter id="filter0_d" x="0" y="0" width="767" height="322" filterUnits="userSpaceOnUse" color-interpolation-filters="sRGB">
<feFlood flood-opacity="0" result="BackgroundImageFix"/>
<feColorMatrix in="SourceAlpha" type="matrix" values="0 0 0 0 0 0 0 0 0 0 0 0 0 0 0 0 0 0 127 0"/>
<feOffset/>
<feGaussianBlur stdDeviation="8"/>
<feColorMatrix type="matrix" values="0 0 0 0 0 0 0 0 0 0 0 0 0 0 0 0 0 0 0.05 0"/>
<feBlend mode="normal" in2="BackgroundImageFix" result="effect1_dropShadow"/>
<feBlend mode="normal" in="SourceGraphic" in2="effect1_dropShadow" result="shape"/>
</filter>
<clipPath id="clip0">
<rect width="668" height="200" fill="white" transform="translate(39 72)"/>
</clipPath>
</defs>
</svg>
