<svg width="767" height="322" viewBox="0 0 767 322" fill="none" xmlns="http://www.w3.org/2000/svg">
<g filter="url(#filter0_d)">
<rect x="16" y="16" width="735" height="290" fill="#FEFEFE"/>
</g>
<path d="M100 256.23H698" stroke="black"/>
<path d="M109.967 261.772V256.23" stroke="black"/>
<path d="M112.656 269.133C112.656 270.403 112.439 271.346 112.006 271.963C111.572 272.58 110.894 272.889 109.973 272.889C109.062 272.889 108.389 272.588 107.951 271.987C107.514 271.381 107.287 270.479 107.271 269.28V267.832C107.271 266.578 107.488 265.647 107.922 265.037C108.355 264.428 109.035 264.123 109.961 264.123C110.879 264.123 111.555 264.418 111.988 265.008C112.422 265.594 112.644 266.5 112.656 267.727V269.133ZM111.572 267.651C111.572 266.733 111.443 266.065 111.185 265.647C110.928 265.225 110.519 265.014 109.961 265.014C109.406 265.014 109.002 265.223 108.748 265.641C108.494 266.059 108.363 266.701 108.355 267.569V269.303C108.355 270.225 108.488 270.906 108.754 271.348C109.023 271.785 109.43 272.004 109.973 272.004C110.508 272.004 110.904 271.797 111.162 271.383C111.424 270.969 111.56 270.317 111.572 269.426V267.651Z" fill="black"/>
<path d="M129.9 261.772V256.23" stroke="black"/>
<path d="M130.802 272.772H129.713V265.547L127.527 266.35V265.365L130.632 264.199H130.802V272.772Z" fill="black"/>
<path d="M149.833 261.772V256.23" stroke="black"/>
<path d="M152.763 272.772H147.173V271.992L150.126 268.711C150.564 268.215 150.865 267.813 151.029 267.504C151.197 267.192 151.281 266.869 151.281 266.537C151.281 266.092 151.146 265.727 150.876 265.442C150.607 265.156 150.247 265.014 149.798 265.014C149.259 265.014 148.839 265.168 148.538 265.477C148.242 265.781 148.093 266.207 148.093 266.754H147.009C147.009 265.969 147.261 265.334 147.765 264.85C148.273 264.365 148.951 264.123 149.798 264.123C150.591 264.123 151.218 264.332 151.679 264.75C152.14 265.164 152.37 265.717 152.37 266.408C152.37 267.248 151.835 268.248 150.765 269.408L148.48 271.887H152.763V272.772Z" fill="black"/>
<path d="M169.767 261.772V256.23" stroke="black"/>
<path d="M168.683 267.979H169.497C170.009 267.971 170.411 267.836 170.704 267.574C170.997 267.313 171.144 266.959 171.144 266.514C171.144 265.514 170.646 265.014 169.65 265.014C169.181 265.014 168.806 265.149 168.525 265.418C168.247 265.684 168.109 266.037 168.109 266.479H167.025C167.025 265.803 167.271 265.242 167.763 264.797C168.259 264.348 168.888 264.123 169.65 264.123C170.454 264.123 171.085 264.336 171.542 264.762C171.999 265.188 172.228 265.78 172.228 266.537C172.228 266.908 172.107 267.268 171.864 267.615C171.626 267.963 171.3 268.223 170.886 268.395C171.355 268.543 171.716 268.789 171.97 269.133C172.228 269.477 172.357 269.897 172.357 270.393C172.357 271.158 172.107 271.766 171.607 272.215C171.107 272.664 170.456 272.889 169.655 272.889C168.855 272.889 168.202 272.672 167.698 272.239C167.198 271.805 166.948 271.233 166.948 270.522H168.038C168.038 270.971 168.185 271.33 168.478 271.6C168.771 271.869 169.163 272.004 169.655 272.004C170.179 272.004 170.579 271.867 170.857 271.594C171.134 271.321 171.273 270.928 171.273 270.416C171.273 269.92 171.12 269.539 170.816 269.274C170.511 269.008 170.071 268.871 169.497 268.864H168.683V267.979Z" fill="black"/>
<path d="M189.7 261.772V256.23" stroke="black"/>
<path d="M191.616 269.906H192.8V270.791H191.616V272.772H190.526V270.791H186.641V270.153L190.462 264.24H191.616V269.906ZM187.872 269.906H190.526V265.723L190.397 265.957L187.872 269.906Z" fill="black"/>
<path d="M209.633 261.772V256.23" stroke="black"/>
<path d="M207.471 268.494L207.905 264.24H212.276V265.242H208.825L208.567 267.569C208.985 267.323 209.459 267.199 209.991 267.199C210.768 267.199 211.385 267.457 211.842 267.973C212.299 268.485 212.528 269.178 212.528 270.053C212.528 270.932 212.29 271.625 211.813 272.133C211.34 272.637 210.678 272.889 209.827 272.889C209.073 272.889 208.458 272.68 207.981 272.262C207.504 271.844 207.233 271.266 207.167 270.528H208.192C208.258 271.016 208.432 271.385 208.713 271.635C208.995 271.881 209.366 272.004 209.827 272.004C210.331 272.004 210.725 271.832 211.01 271.489C211.299 271.145 211.444 270.67 211.444 270.065C211.444 269.494 211.288 269.037 210.975 268.694C210.667 268.346 210.254 268.172 209.739 268.172C209.266 268.172 208.895 268.276 208.625 268.483L208.338 268.717L207.471 268.494Z" fill="black"/>
<path d="M229.567 261.772V256.23" stroke="black"/>
<path d="M231.16 264.235V265.155H230.961C230.117 265.17 229.446 265.42 228.946 265.905C228.446 266.389 228.156 267.071 228.078 267.949C228.528 267.434 229.141 267.176 229.918 267.176C230.66 267.176 231.252 267.438 231.694 267.961C232.139 268.485 232.362 269.16 232.362 269.989C232.362 270.867 232.121 271.571 231.641 272.098C231.164 272.625 230.524 272.889 229.719 272.889C228.903 272.889 228.24 272.576 227.733 271.951C227.225 271.323 226.971 270.514 226.971 269.526V269.11C226.971 267.539 227.305 266.34 227.973 265.512C228.645 264.68 229.643 264.254 230.967 264.235H231.16ZM229.737 268.078C229.365 268.078 229.024 268.19 228.711 268.412C228.399 268.635 228.182 268.914 228.061 269.25V269.649C228.061 270.352 228.219 270.918 228.535 271.348C228.852 271.778 229.246 271.992 229.719 271.992C230.207 271.992 230.59 271.813 230.867 271.453C231.149 271.094 231.289 270.623 231.289 270.041C231.289 269.455 231.147 268.983 230.862 268.623C230.58 268.26 230.205 268.078 229.737 268.078Z" fill="black"/>
<path d="M249.5 261.772V256.23" stroke="black"/>
<path d="M252.348 264.85L248.814 272.772H247.678L251.199 265.131H246.582V264.24H252.348V264.85Z" fill="black"/>
<path d="M269.433 261.772V256.23" stroke="black"/>
<path d="M271.947 266.467C271.947 266.893 271.834 267.272 271.607 267.604C271.385 267.936 271.082 268.196 270.699 268.383C271.144 268.574 271.496 268.854 271.754 269.221C272.015 269.588 272.146 270.004 272.146 270.469C272.146 271.207 271.896 271.795 271.396 272.233C270.9 272.67 270.246 272.889 269.433 272.889C268.613 272.889 267.955 272.67 267.459 272.233C266.967 271.791 266.72 271.203 266.72 270.469C266.72 270.008 266.845 269.592 267.095 269.221C267.349 268.85 267.699 268.569 268.144 268.377C267.765 268.19 267.467 267.93 267.248 267.598C267.029 267.266 266.92 266.889 266.92 266.467C266.92 265.748 267.15 265.178 267.611 264.756C268.072 264.334 268.679 264.123 269.433 264.123C270.183 264.123 270.789 264.334 271.25 264.756C271.715 265.178 271.947 265.748 271.947 266.467ZM271.062 270.446C271.062 269.969 270.91 269.58 270.605 269.28C270.304 268.979 269.91 268.828 269.422 268.828C268.933 268.828 268.541 268.977 268.244 269.274C267.951 269.571 267.804 269.961 267.804 270.446C267.804 270.93 267.947 271.311 268.232 271.588C268.521 271.865 268.922 272.004 269.433 272.004C269.941 272.004 270.34 271.865 270.629 271.588C270.918 271.307 271.062 270.926 271.062 270.446ZM269.433 265.014C269.008 265.014 268.662 265.147 268.396 265.412C268.135 265.674 268.004 266.031 268.004 266.485C268.004 266.918 268.133 267.27 268.39 267.539C268.652 267.805 269 267.938 269.433 267.938C269.867 267.938 270.213 267.805 270.47 267.539C270.732 267.27 270.863 266.918 270.863 266.485C270.863 266.051 270.728 265.698 270.459 265.424C270.189 265.151 269.847 265.014 269.433 265.014Z" fill="black"/>
<path d="M289.367 261.772V256.23" stroke="black"/>
<path d="M290.861 269.022C290.634 269.291 290.363 269.508 290.046 269.672C289.734 269.836 289.39 269.918 289.015 269.918C288.523 269.918 288.093 269.797 287.726 269.555C287.363 269.313 287.082 268.973 286.882 268.535C286.683 268.094 286.583 267.608 286.583 267.076C286.583 266.506 286.691 265.992 286.906 265.535C287.125 265.078 287.433 264.729 287.832 264.487C288.23 264.244 288.695 264.123 289.226 264.123C290.07 264.123 290.734 264.44 291.218 265.073C291.707 265.701 291.951 266.561 291.951 267.651V267.967C291.951 269.627 291.623 270.84 290.966 271.606C290.31 272.367 289.32 272.758 287.996 272.778H287.785V271.864H288.013C288.908 271.848 289.595 271.615 290.076 271.166C290.556 270.713 290.818 269.998 290.861 269.022ZM289.191 269.022C289.554 269.022 289.888 268.91 290.193 268.688C290.501 268.465 290.726 268.19 290.867 267.862V267.428C290.867 266.717 290.712 266.139 290.404 265.694C290.095 265.248 289.705 265.026 289.232 265.026C288.755 265.026 288.373 265.209 288.083 265.576C287.794 265.94 287.65 266.42 287.65 267.018C287.65 267.6 287.789 268.08 288.066 268.459C288.347 268.834 288.722 269.022 289.191 269.022Z" fill="black"/>
<path d="M329.233 261.772V256.23" stroke="black"/>
<path d="M326.767 272.772H325.677V265.547L323.491 266.35V265.365L326.597 264.199H326.767V272.772ZM333.505 272.772H332.415V265.547L330.229 266.35V265.365L333.335 264.199H333.505V272.772Z" fill="black"/>
<path d="M369.1 261.772V256.23" stroke="black"/>
<path d="M366.633 272.772H365.543V265.547L363.358 266.35V265.365L366.463 264.199H366.633V272.772ZM371.385 267.979H372.2C372.711 267.971 373.114 267.836 373.407 267.574C373.7 267.313 373.846 266.959 373.846 266.514C373.846 265.514 373.348 265.014 372.352 265.014C371.883 265.014 371.508 265.149 371.227 265.418C370.95 265.684 370.811 266.037 370.811 266.479H369.727C369.727 265.803 369.973 265.242 370.465 264.797C370.961 264.348 371.59 264.123 372.352 264.123C373.157 264.123 373.787 264.336 374.245 264.762C374.702 265.188 374.93 265.78 374.93 266.537C374.93 266.908 374.809 267.268 374.567 267.615C374.328 267.963 374.002 268.223 373.588 268.395C374.057 268.543 374.418 268.789 374.672 269.133C374.93 269.477 375.059 269.897 375.059 270.393C375.059 271.158 374.809 271.766 374.309 272.215C373.809 272.664 373.159 272.889 372.358 272.889C371.557 272.889 370.905 272.672 370.401 272.239C369.901 271.805 369.651 271.233 369.651 270.522H370.741C370.741 270.971 370.887 271.33 371.18 271.6C371.473 271.869 371.866 272.004 372.358 272.004C372.881 272.004 373.282 271.867 373.559 271.594C373.836 271.321 373.975 270.928 373.975 270.416C373.975 269.92 373.823 269.539 373.518 269.274C373.213 269.008 372.774 268.871 372.2 268.864H371.385V267.979Z" fill="black"/>
<path d="M408.967 261.772V256.23" stroke="black"/>
<path d="M406.5 272.772H405.41V265.547L403.224 266.35V265.365L406.33 264.199H406.5V272.772ZM410.174 268.494L410.607 264.24H414.978V265.242H411.527L411.269 267.569C411.687 267.323 412.162 267.199 412.693 267.199C413.471 267.199 414.088 267.457 414.545 267.973C415.002 268.485 415.23 269.178 415.23 270.053C415.23 270.932 414.992 271.625 414.516 272.133C414.043 272.637 413.381 272.889 412.529 272.889C411.775 272.889 411.16 272.68 410.683 272.262C410.207 271.844 409.935 271.266 409.869 270.528H410.894C410.961 271.016 411.135 271.385 411.416 271.635C411.697 271.881 412.068 272.004 412.529 272.004C413.033 272.004 413.428 271.832 413.713 271.489C414.002 271.145 414.146 270.67 414.146 270.065C414.146 269.494 413.99 269.037 413.678 268.694C413.369 268.346 412.957 268.172 412.441 268.172C411.969 268.172 411.598 268.276 411.328 268.483L411.041 268.717L410.174 268.494Z" fill="black"/>
<path d="M448.833 261.772V256.23" stroke="black"/>
<path d="M446.367 272.772H445.277V265.547L443.091 266.35V265.365L446.197 264.199H446.367V272.772ZM455.05 264.85L451.517 272.772H450.38L453.902 265.131H449.285V264.24H455.05V264.85Z" fill="black"/>
<path d="M488.7 261.772V256.23" stroke="black"/>
<path d="M486.233 272.772H485.143V265.547L482.958 266.35V265.365L486.063 264.199H486.233V272.772ZM493.563 269.022C493.337 269.291 493.065 269.508 492.749 269.672C492.436 269.836 492.093 269.918 491.718 269.918C491.225 269.918 490.796 269.797 490.429 269.555C490.065 269.313 489.784 268.973 489.585 268.535C489.386 268.094 489.286 267.608 489.286 267.076C489.286 266.506 489.393 265.992 489.608 265.535C489.827 265.078 490.136 264.729 490.534 264.487C490.932 264.244 491.397 264.123 491.929 264.123C492.772 264.123 493.436 264.44 493.921 265.073C494.409 265.701 494.653 266.561 494.653 267.651V267.967C494.653 269.627 494.325 270.84 493.669 271.606C493.013 272.367 492.022 272.758 490.698 272.778H490.487V271.864H490.716C491.61 271.848 492.298 271.615 492.778 271.166C493.259 270.713 493.52 269.998 493.563 269.022ZM491.893 269.022C492.257 269.022 492.591 268.91 492.895 268.688C493.204 268.465 493.429 268.19 493.569 267.862V267.428C493.569 266.717 493.415 266.139 493.106 265.694C492.798 265.248 492.407 265.026 491.934 265.026C491.458 265.026 491.075 265.209 490.786 265.576C490.497 265.94 490.352 266.42 490.352 267.018C490.352 267.6 490.491 268.08 490.768 268.459C491.05 268.834 491.425 269.022 491.893 269.022Z" fill="black"/>
<path d="M528.567 261.772V256.23" stroke="black"/>
<path d="M528.127 272.772H522.537V271.992L525.49 268.711C525.928 268.215 526.229 267.813 526.393 267.504C526.561 267.192 526.645 266.869 526.645 266.537C526.645 266.092 526.51 265.727 526.24 265.442C525.971 265.156 525.612 265.014 525.162 265.014C524.623 265.014 524.203 265.168 523.903 265.477C523.606 265.781 523.457 266.207 523.457 266.754H522.373C522.373 265.969 522.625 265.334 523.129 264.85C523.637 264.365 524.315 264.123 525.162 264.123C525.955 264.123 526.582 264.332 527.043 264.75C527.504 265.164 527.735 265.717 527.735 266.408C527.735 267.248 527.199 268.248 526.129 269.408L523.844 271.887H528.127V272.772ZM532.838 272.772H531.748V265.547L529.563 266.35V265.365L532.668 264.199H532.838V272.772Z" fill="black"/>
<path d="M568.433 261.772V256.23" stroke="black"/>
<path d="M567.994 272.772H562.404V271.992L565.357 268.711C565.795 268.215 566.095 267.813 566.26 267.504C566.427 267.192 566.511 266.869 566.511 266.537C566.511 266.092 566.377 265.727 566.107 265.442C565.838 265.156 565.478 265.014 565.029 265.014C564.49 265.014 564.07 265.168 563.769 265.477C563.472 265.781 563.324 266.207 563.324 266.754H562.24C562.24 265.969 562.492 265.334 562.996 264.85C563.504 264.365 564.181 264.123 565.029 264.123C565.822 264.123 566.449 264.332 566.91 264.75C567.371 265.164 567.601 265.717 567.601 266.408C567.601 267.248 567.066 268.248 565.996 269.408L563.711 271.887H567.994V272.772ZM570.719 267.979H571.533C572.045 267.971 572.447 267.836 572.74 267.574C573.033 267.313 573.179 266.959 573.179 266.514C573.179 265.514 572.681 265.014 571.685 265.014C571.217 265.014 570.842 265.149 570.56 265.418C570.283 265.684 570.144 266.037 570.144 266.479H569.06C569.06 265.803 569.306 265.242 569.799 264.797C570.295 264.348 570.924 264.123 571.685 264.123C572.49 264.123 573.121 264.336 573.578 264.762C574.035 265.188 574.263 265.78 574.263 266.537C574.263 266.908 574.142 267.268 573.9 267.615C573.662 267.963 573.336 268.223 572.922 268.395C573.39 268.543 573.752 268.789 574.006 269.133C574.263 269.477 574.392 269.897 574.392 270.393C574.392 271.158 574.142 271.766 573.642 272.215C573.142 272.664 572.492 272.889 571.691 272.889C570.89 272.889 570.238 272.672 569.734 272.239C569.234 271.805 568.984 271.233 568.984 270.522H570.074C570.074 270.971 570.22 271.33 570.513 271.6C570.806 271.869 571.199 272.004 571.691 272.004C572.215 272.004 572.615 271.867 572.892 271.594C573.17 271.321 573.308 270.928 573.308 270.416C573.308 269.92 573.156 269.539 572.851 269.274C572.547 269.008 572.107 268.871 571.533 268.864H570.719V267.979Z" fill="black"/>
<path d="M608.3 261.772V256.23" stroke="black"/>
<path d="M607.861 272.772H602.271V271.992L605.224 268.711C605.661 268.215 605.962 267.813 606.126 267.504C606.294 267.192 606.378 266.869 606.378 266.537C606.378 266.092 606.243 265.727 605.974 265.442C605.704 265.156 605.345 265.014 604.896 265.014C604.357 265.014 603.937 265.168 603.636 265.477C603.339 265.781 603.191 266.207 603.191 266.754H602.107C602.107 265.969 602.359 265.334 602.862 264.85C603.37 264.365 604.048 264.123 604.896 264.123C605.689 264.123 606.316 264.332 606.777 264.75C607.237 265.164 607.468 265.717 607.468 266.408C607.468 267.248 606.933 268.248 605.862 269.408L603.577 271.887H607.861V272.772ZM609.507 268.494L609.941 264.24H614.312V265.242H610.861L610.603 267.569C611.021 267.323 611.495 267.199 612.027 267.199C612.804 267.199 613.421 267.457 613.878 267.973C614.335 268.485 614.564 269.178 614.564 270.053C614.564 270.932 614.325 271.625 613.849 272.133C613.376 272.637 612.714 272.889 611.862 272.889C611.109 272.889 610.493 272.68 610.017 272.262C609.54 271.844 609.269 271.266 609.202 270.528H610.228C610.294 271.016 610.468 271.385 610.749 271.635C611.03 271.881 611.402 272.004 611.862 272.004C612.366 272.004 612.761 271.832 613.046 271.489C613.335 271.145 613.48 270.67 613.48 270.065C613.48 269.494 613.323 269.037 613.011 268.694C612.702 268.346 612.29 268.172 611.775 268.172C611.302 268.172 610.931 268.276 610.661 268.483L610.374 268.717L609.507 268.494Z" fill="black"/>
<path d="M648.167 261.772V256.23" stroke="black"/>
<path d="M647.727 272.772H642.137V271.992L645.091 268.711C645.528 268.215 645.829 267.813 645.993 267.504C646.161 267.192 646.245 266.869 646.245 266.537C646.245 266.092 646.11 265.727 645.841 265.442C645.571 265.156 645.212 265.014 644.762 265.014C644.223 265.014 643.803 265.168 643.503 265.477C643.206 265.781 643.057 266.207 643.057 266.754H641.973C641.973 265.969 642.225 265.334 642.729 264.85C643.237 264.365 643.915 264.123 644.762 264.123C645.555 264.123 646.182 264.332 646.643 264.75C647.104 265.164 647.335 265.717 647.335 266.408C647.335 267.248 646.799 268.248 645.729 269.408L643.444 271.887H647.727V272.772ZM654.383 264.85L650.85 272.772H649.714L653.235 265.131H648.618V264.24H654.383V264.85Z" fill="black"/>
<path d="M688.033 261.772V256.23" stroke="black"/>
<path d="M687.594 272.772H682.004V271.992L684.957 268.711C685.395 268.215 685.695 267.813 685.859 267.504C686.027 267.192 686.111 266.869 686.111 266.537C686.111 266.092 685.977 265.727 685.707 265.442C685.438 265.156 685.078 265.014 684.629 265.014C684.09 265.014 683.67 265.168 683.369 265.477C683.072 265.781 682.924 266.207 682.924 266.754H681.84C681.84 265.969 682.092 265.334 682.596 264.85C683.104 264.365 683.781 264.123 684.629 264.123C685.422 264.123 686.049 264.332 686.51 264.75C686.971 265.164 687.201 265.717 687.201 266.408C687.201 267.248 686.666 268.248 685.596 269.408L683.311 271.887H687.594V272.772ZM692.897 269.022C692.67 269.291 692.399 269.508 692.082 269.672C691.77 269.836 691.426 269.918 691.051 269.918C690.559 269.918 690.129 269.797 689.762 269.555C689.399 269.313 689.117 268.973 688.918 268.535C688.719 268.094 688.619 267.608 688.619 267.076C688.619 266.506 688.727 265.992 688.942 265.535C689.16 265.078 689.469 264.729 689.867 264.487C690.266 264.244 690.731 264.123 691.262 264.123C692.106 264.123 692.77 264.44 693.254 265.073C693.742 265.701 693.986 266.561 693.986 267.651V267.967C693.986 269.627 693.658 270.84 693.002 271.606C692.346 272.367 691.356 272.758 690.031 272.778H689.82V271.864H690.049C690.943 271.848 691.631 271.615 692.111 271.166C692.592 270.713 692.854 269.998 692.897 269.022ZM691.227 269.022C691.59 269.022 691.924 268.91 692.229 268.688C692.537 268.465 692.762 268.19 692.902 267.862V267.428C692.902 266.717 692.748 266.139 692.44 265.694C692.131 265.248 691.74 265.026 691.268 265.026C690.791 265.026 690.408 265.209 690.119 265.576C689.83 265.94 689.686 266.42 689.686 267.018C689.686 267.6 689.824 268.08 690.102 268.459C690.383 268.834 690.758 269.022 691.227 269.022Z" fill="black"/>
<path d="M100 108.459V256.23" stroke="black"/>
<path d="M94 256.23H100" stroke="black"/>
<path d="M88.3203 252.509C88.3203 253.778 88.1035 254.721 87.6699 255.339C87.2363 255.956 86.5586 256.264 85.6367 256.264C84.7266 256.264 84.0527 255.964 83.6152 255.362C83.1777 254.757 82.9512 253.854 82.9355 252.655V251.208C82.9355 249.954 83.1523 249.022 83.5859 248.413C84.0195 247.803 84.6992 247.499 85.625 247.499C86.543 247.499 87.2188 247.794 87.6523 248.384C88.0859 248.969 88.3086 249.876 88.3203 251.102V252.509ZM87.2363 251.026C87.2363 250.108 87.1074 249.44 86.8496 249.022C86.5918 248.6 86.1836 248.389 85.625 248.389C85.0703 248.389 84.666 248.598 84.4121 249.016C84.1582 249.434 84.0273 250.077 84.0195 250.944V252.678C84.0195 253.6 84.1523 254.282 84.418 254.723C84.6875 255.161 85.0938 255.38 85.6367 255.38C86.1719 255.38 86.5684 255.173 86.8262 254.759C87.0879 254.344 87.2246 253.692 87.2363 252.802V251.026Z" fill="black"/>
<path d="M94 219.287H100" stroke="black"/>
<path d="M75.084 219.205H69.4941V218.425L72.4473 215.144C72.8848 214.648 73.1855 214.246 73.3496 213.937C73.5176 213.625 73.6016 213.302 73.6016 212.97C73.6016 212.525 73.4668 212.16 73.1973 211.875C72.9277 211.589 72.5684 211.447 72.1191 211.447C71.5801 211.447 71.1602 211.601 70.8594 211.91C70.5625 212.214 70.4141 212.64 70.4141 213.187H69.3301C69.3301 212.402 69.582 211.767 70.0859 211.283C70.5938 210.798 71.2715 210.556 72.1191 210.556C72.9121 210.556 73.5391 210.765 74 211.183C74.4609 211.597 74.6914 212.15 74.6914 212.841C74.6914 213.681 74.1562 214.681 73.0859 215.841L70.8008 218.32H75.084V219.205ZM76.7305 214.927L77.1641 210.673H81.5352V211.675H78.084L77.8262 214.001C78.2441 213.755 78.7188 213.632 79.25 213.632C80.0273 213.632 80.6445 213.89 81.1016 214.406C81.5586 214.917 81.7871 215.611 81.7871 216.486C81.7871 217.365 81.5488 218.058 81.0723 218.566C80.5996 219.07 79.9375 219.322 79.0859 219.322C78.332 219.322 77.7168 219.113 77.2402 218.695C76.7637 218.277 76.4922 217.699 76.4258 216.96H77.4512C77.5176 217.449 77.6914 217.818 77.9727 218.068C78.2539 218.314 78.625 218.437 79.0859 218.437C79.5898 218.437 79.9844 218.265 80.2695 217.921C80.5586 217.578 80.7031 217.103 80.7031 216.498C80.7031 215.927 80.5469 215.47 80.2344 215.126C79.9258 214.779 79.5137 214.605 78.998 214.605C78.5254 214.605 78.1543 214.708 77.8848 214.916L77.5977 215.15L76.7305 214.927ZM88.3203 215.566C88.3203 216.835 88.1035 217.779 87.6699 218.396C87.2363 219.013 86.5586 219.322 85.6367 219.322C84.7266 219.322 84.0527 219.021 83.6152 218.419C83.1777 217.814 82.9512 216.912 82.9355 215.712V214.265C82.9355 213.011 83.1523 212.08 83.5859 211.47C84.0195 210.861 84.6992 210.556 85.625 210.556C86.543 210.556 87.2188 210.851 87.6523 211.441C88.0859 212.027 88.3086 212.933 88.3203 214.16V215.566ZM87.2363 214.083C87.2363 213.166 87.1074 212.498 86.8496 212.08C86.5918 211.658 86.1836 211.447 85.625 211.447C85.0703 211.447 84.666 211.656 84.4121 212.074C84.1582 212.492 84.0273 213.134 84.0195 214.001V215.736C84.0195 216.658 84.1523 217.339 84.418 217.781C84.6875 218.218 85.0938 218.437 85.6367 218.437C86.1719 218.437 86.5684 218.23 86.8262 217.816C87.0879 217.402 87.2246 216.75 87.2363 215.859V214.083Z" fill="black"/>
<path d="M94 182.345H100" stroke="black"/>
<path d="M69.9922 177.985L70.4258 173.731H74.7969V174.733H71.3457L71.0879 177.059C71.5059 176.813 71.9805 176.69 72.5117 176.69C73.2891 176.69 73.9062 176.948 74.3633 177.463C74.8203 177.975 75.0488 178.668 75.0488 179.543C75.0488 180.422 74.8105 181.115 74.334 181.623C73.8613 182.127 73.1992 182.379 72.3477 182.379C71.5938 182.379 70.9785 182.17 70.502 181.752C70.0254 181.334 69.7539 180.756 69.6875 180.018H70.7129C70.7793 180.506 70.9531 180.875 71.2344 181.125C71.5156 181.371 71.8867 181.494 72.3477 181.494C72.8516 181.494 73.2461 181.323 73.5312 180.979C73.8203 180.635 73.9648 180.16 73.9648 179.555C73.9648 178.985 73.8086 178.528 73.4961 178.184C73.1875 177.836 72.7754 177.662 72.2598 177.662C71.7871 177.662 71.416 177.766 71.1465 177.973L70.8594 178.207L69.9922 177.985ZM81.582 178.623C81.582 179.893 81.3652 180.836 80.9316 181.453C80.498 182.071 79.8203 182.379 78.8984 182.379C77.9883 182.379 77.3145 182.078 76.877 181.477C76.4395 180.871 76.2129 179.969 76.1973 178.77V177.323C76.1973 176.069 76.4141 175.137 76.8477 174.528C77.2812 173.918 77.9609 173.614 78.8867 173.614C79.8047 173.614 80.4805 173.908 80.9141 174.498C81.3477 175.084 81.5703 175.99 81.582 177.217V178.623ZM80.498 177.141C80.498 176.223 80.3691 175.555 80.1113 175.137C79.8535 174.715 79.4453 174.504 78.8867 174.504C78.332 174.504 77.9277 174.713 77.6738 175.131C77.4199 175.549 77.2891 176.192 77.2812 177.059V178.793C77.2812 179.715 77.4141 180.397 77.6797 180.838C77.9492 181.276 78.3555 181.494 78.8984 181.494C79.4336 181.494 79.8301 181.287 80.0879 180.873C80.3496 180.459 80.4863 179.807 80.498 178.916V177.141ZM88.3203 178.623C88.3203 179.893 88.1035 180.836 87.6699 181.453C87.2363 182.071 86.5586 182.379 85.6367 182.379C84.7266 182.379 84.0527 182.078 83.6152 181.477C83.1777 180.871 82.9512 179.969 82.9355 178.77V177.323C82.9355 176.069 83.1523 175.137 83.5859 174.528C84.0195 173.918 84.6992 173.614 85.625 173.614C86.543 173.614 87.2188 173.908 87.6523 174.498C88.0859 175.084 88.3086 175.99 88.3203 177.217V178.623ZM87.2363 177.141C87.2363 176.223 87.1074 175.555 86.8496 175.137C86.5918 174.715 86.1836 174.504 85.625 174.504C85.0703 174.504 84.666 174.713 84.4121 175.131C84.1582 175.549 84.0273 176.192 84.0195 177.059V178.793C84.0195 179.715 84.1523 180.397 84.418 180.838C84.6875 181.276 85.0938 181.494 85.6367 181.494C86.1719 181.494 86.5684 181.287 86.8262 180.873C87.0879 180.459 87.2246 179.807 87.2363 178.916V177.141Z" fill="black"/>
<path d="M94 145.402H100" stroke="black"/>
<path d="M75.002 137.397L71.4688 145.319H70.332L73.8535 137.679H69.2363V136.788H75.002V137.397ZM76.7305 141.042L77.1641 136.788H81.5352V137.79H78.084L77.8262 140.116C78.2441 139.87 78.7188 139.747 79.25 139.747C80.0273 139.747 80.6445 140.005 81.1016 140.521C81.5586 141.032 81.7871 141.726 81.7871 142.601C81.7871 143.479 81.5488 144.173 81.0723 144.681C80.5996 145.185 79.9375 145.437 79.0859 145.437C78.332 145.437 77.7168 145.228 77.2402 144.81C76.7637 144.392 76.4922 143.813 76.4258 143.075H77.4512C77.5176 143.563 77.6914 143.933 77.9727 144.183C78.2539 144.429 78.625 144.552 79.0859 144.552C79.5898 144.552 79.9844 144.38 80.2695 144.036C80.5586 143.692 80.7031 143.218 80.7031 142.612C80.7031 142.042 80.5469 141.585 80.2344 141.241C79.9258 140.894 79.5137 140.72 78.998 140.72C78.5254 140.72 78.1543 140.823 77.8848 141.03L77.5977 141.265L76.7305 141.042ZM88.3203 141.681C88.3203 142.95 88.1035 143.894 87.6699 144.511C87.2363 145.128 86.5586 145.437 85.6367 145.437C84.7266 145.437 84.0527 145.136 83.6152 144.534C83.1777 143.929 82.9512 143.026 82.9355 141.827V140.38C82.9355 139.126 83.1523 138.194 83.5859 137.585C84.0195 136.976 84.6992 136.671 85.625 136.671C86.543 136.671 87.2188 136.966 87.6523 137.556C88.0859 138.142 88.3086 139.048 88.3203 140.274V141.681ZM87.2363 140.198C87.2363 139.28 87.1074 138.612 86.8496 138.194C86.5918 137.772 86.1836 137.562 85.625 137.562C85.0703 137.562 84.666 137.771 84.4121 138.188C84.1582 138.606 84.0273 139.249 84.0195 140.116V141.851C84.0195 142.772 84.1523 143.454 84.418 143.896C84.6875 144.333 85.0938 144.552 85.6367 144.552C86.1719 144.552 86.5684 144.345 86.8262 143.931C87.0879 143.517 87.2246 142.864 87.2363 141.974V140.198Z" fill="black"/>
<path d="M94 108.459H100" stroke="black"/>
<path d="M66.3184 111.968H65.2285V104.744L63.043 105.546V104.562L66.1484 103.396H66.3184V111.968ZM74.8438 108.33C74.8438 109.599 74.627 110.542 74.1934 111.16C73.7598 111.777 73.082 112.085 72.1602 112.085C71.25 112.085 70.5762 111.785 70.1387 111.183C69.7012 110.578 69.4746 109.675 69.459 108.476V107.029C69.459 105.775 69.6758 104.843 70.1094 104.234C70.543 103.625 71.2227 103.32 72.1484 103.32C73.0664 103.32 73.7422 103.615 74.1758 104.205C74.6094 104.791 74.832 105.697 74.8438 106.923V108.33ZM73.7598 106.847C73.7598 105.929 73.6309 105.261 73.373 104.843C73.1152 104.421 72.707 104.21 72.1484 104.21C71.5938 104.21 71.1895 104.419 70.9355 104.837C70.6816 105.255 70.5508 105.898 70.543 106.765V108.5C70.543 109.421 70.6758 110.103 70.9414 110.544C71.2109 110.982 71.6172 111.201 72.1602 111.201C72.6953 111.201 73.0918 110.994 73.3496 110.58C73.6113 110.166 73.748 109.513 73.7598 108.623V106.847ZM81.582 108.33C81.582 109.599 81.3652 110.542 80.9316 111.16C80.498 111.777 79.8203 112.085 78.8984 112.085C77.9883 112.085 77.3145 111.785 76.877 111.183C76.4395 110.578 76.2129 109.675 76.1973 108.476V107.029C76.1973 105.775 76.4141 104.843 76.8477 104.234C77.2812 103.625 77.9609 103.32 78.8867 103.32C79.8047 103.32 80.4805 103.615 80.9141 104.205C81.3477 104.791 81.5703 105.697 81.582 106.923V108.33ZM80.498 106.847C80.498 105.929 80.3691 105.261 80.1113 104.843C79.8535 104.421 79.4453 104.21 78.8867 104.21C78.332 104.21 77.9277 104.419 77.6738 104.837C77.4199 105.255 77.2891 105.898 77.2812 106.765V108.5C77.2812 109.421 77.4141 110.103 77.6797 110.544C77.9492 110.982 78.3555 111.201 78.8984 111.201C79.4336 111.201 79.8301 110.994 80.0879 110.58C80.3496 110.166 80.4863 109.513 80.498 108.623V106.847ZM88.3203 108.33C88.3203 109.599 88.1035 110.542 87.6699 111.16C87.2363 111.777 86.5586 112.085 85.6367 112.085C84.7266 112.085 84.0527 111.785 83.6152 111.183C83.1777 110.578 82.9512 109.675 82.9355 108.476V107.029C82.9355 105.775 83.1523 104.843 83.5859 104.234C84.0195 103.625 84.6992 103.32 85.625 103.32C86.543 103.32 87.2188 103.615 87.6523 104.205C88.0859 104.791 88.3086 105.697 88.3203 106.923V108.33ZM87.2363 106.847C87.2363 105.929 87.1074 105.261 86.8496 104.843C86.5918 104.421 86.1836 104.21 85.625 104.21C85.0703 104.21 84.666 104.419 84.4121 104.837C84.1582 105.255 84.0273 105.898 84.0195 106.765V108.5C84.0195 109.421 84.1523 110.103 84.418 110.544C84.6875 110.982 85.0938 111.201 85.6367 111.201C86.1719 111.201 86.5684 110.994 86.8262 110.58C87.0879 110.166 87.2246 109.513 87.2363 108.623V106.847Z" fill="black"/>
<path d="M100 256.23H698" stroke="#CCCCCC" stroke-opacity="0.3"/>
<path d="M100 219.288H698" stroke="#CCCCCC" stroke-opacity="0.3"/>
<path d="M100 182.345H698" stroke="#CCCCCC" stroke-opacity="0.3"/>
<path d="M100 145.402H698" stroke="#CCCCCC" stroke-opacity="0.3"/>
<path d="M100 108.459H698" stroke="#CCCCCC" stroke-opacity="0.3"/>
<path d="M109.967 108.459V256.23" stroke="#CCCCCC" stroke-opacity="0.3"/>
<path d="M129.9 108.459V256.23" stroke="#CCCCCC" stroke-opacity="0.3"/>
<path d="M149.833 108.459V256.23" stroke="#CCCCCC" stroke-opacity="0.3"/>
<path d="M169.767 108.459V256.23" stroke="#CCCCCC" stroke-opacity="0.3"/>
<path d="M189.7 108.459V256.23" stroke="#CCCCCC" stroke-opacity="0.3"/>
<path d="M209.633 108.459V256.23" stroke="#CCCCCC" stroke-opacity="0.3"/>
<path d="M229.567 108.459V256.23" stroke="#CCCCCC" stroke-opacity="0.3"/>
<path d="M249.5 108.459V256.23" stroke="#CCCCCC" stroke-opacity="0.3"/>
<path d="M269.433 108.459V256.23" stroke="#CCCCCC" stroke-opacity="0.3"/>
<path d="M289.367 108.459V256.23" stroke="#CCCCCC" stroke-opacity="0.3"/>
<path d="M329.233 108.459V256.23" stroke="#CCCCCC" stroke-opacity="0.3"/>
<path d="M369.1 108.459V256.23" stroke="#CCCCCC" stroke-opacity="0.3"/>
<path d="M408.967 108.459V256.23" stroke="#CCCCCC" stroke-opacity="0.3"/>
<path d="M448.833 108.459V256.23" stroke="#CCCCCC" stroke-opacity="0.3"/>
<path d="M488.7 108.459V256.23" stroke="#CCCCCC" stroke-opacity="0.3"/>
<path d="M528.567 108.459V256.23" stroke="#CCCCCC" stroke-opacity="0.3"/>
<path d="M568.433 108.459V256.23" stroke="#CCCCCC" stroke-opacity="0.3"/>
<path d="M608.3 108.459V256.23" stroke="#CCCCCC" stroke-opacity="0.3"/>
<path d="M648.167 108.459V256.23" stroke="#CCCCCC" stroke-opacity="0.3"/>
<path d="M688.033 108.459V256.23" stroke="#CCCCCC" stroke-opacity="0.3"/>
<path d="M100 108.459V256.23" stroke="#CCCCCC" stroke-opacity="0.3"/>
<path d="M698 108.459V256.23" stroke="#CCCCCC" stroke-opacity="0.3"/>
<path d="M101.993 140.526H106.993V256.23H101.993V140.526Z" fill="#E61856"/>
<path d="M121.927 172.74H126.927V256.23H121.927V172.74Z" fill="#E61856"/>
<path d="M141.86 155.303H146.86V256.23H141.86V155.303Z" fill="#E61856"/>
<path d="M161.793 192.689H166.793V256.23H161.793V192.689Z" fill="#E61856"/>
<path d="M181.727 130.33H186.727V256.23H181.727V130.33Z" fill="#E61856"/>
<path d="M201.66 154.121H206.66V256.23H201.66V154.121Z" fill="#E61856"/>
<path d="M221.593 182.345H226.593V256.23H221.593V182.345Z" fill="#E61856"/>
<path d="M241.527 140.378H246.527V256.23H241.527V140.378Z" fill="#E61856"/>
<path d="M261.46 149.392H266.46V256.23H261.46V149.392Z" fill="#E61856"/>
<path d="M281.393 205.693H286.393V256.23H281.393V205.693Z" fill="#E61856"/>
<path d="M301.327 223.868H306.327V256.23H301.327V223.868Z" fill="#E61856"/>
<path d="M321.26 190.324H326.26V256.23H321.26V190.324Z" fill="#E61856"/>
<path d="M341.193 125.01H346.193V256.23H341.193V125.01Z" fill="#E61856"/>
<path d="M361.127 243.965H366.127V256.23H361.127V243.965Z" fill="#E61856"/>
<path d="M381.06 187.812H386.06V256.23H381.06V187.812Z" fill="#E61856"/>
<path d="M400.993 231.405H405.993V256.23H400.993V231.405Z" fill="#E61856"/>
<path d="M420.927 187.073H425.927V256.23H420.927V187.073Z" fill="#E61856"/>
<path d="M440.86 154.121H445.86V256.23H440.86V154.121Z" fill="#E61856"/>
<path d="M460.793 240.862H465.793V256.23H460.793V240.862Z" fill="#E61856"/>
<path d="M480.727 247.512H485.727V256.23H480.727V247.512Z" fill="#E61856"/>
<path d="M500.66 113.484H505.66V256.23H500.66V113.484Z" fill="#E61856"/>
<path d="M520.593 204.363H525.593V256.23H520.593V204.363Z" fill="#E61856"/>
<path d="M540.527 247.512H545.527V256.23H540.527V247.512Z" fill="#E61856"/>
<path d="M560.46 215.15H565.46V256.23H560.46V215.15Z" fill="#E61856"/>
<path d="M580.393 136.24H585.393V256.23H580.393V136.24Z" fill="#E61856"/>
<path d="M600.327 163.135H605.327V256.23H600.327V163.135Z" fill="#E61856"/>
<path d="M620.26 169.636H625.26V256.23H620.26V169.636Z" fill="#E61856"/>
<path d="M640.193 191.654H645.193V256.23H640.193V191.654Z" fill="#E61856"/>
<path d="M660.127 211.751H665.127V256.23H660.127V211.751Z" fill="#E61856"/>
<path d="M680.06 223.721H685.06V256.23H680.06V223.721Z" fill="#E61856"/>
<path d="M110.993 191.95H115.993V256.23H110.993V191.95Z" fill="#557BF2"/>
<path d="M130.927 186.334H135.927V256.23H130.927V186.334Z" fill="#557BF2"/>
<path d="M150.86 240.566H155.86V256.23H150.86V240.566Z" fill="#557BF2"/>
<path d="M170.793 223.72H175.793V256.23H170.793V223.72Z" fill="#557BF2"/>
<path d="M190.727 207.022H195.727V256.23H190.727V207.022Z" fill="#557BF2"/>
<path d="M210.66 254.604H215.66V256.23H210.66V254.604Z" fill="#557BF2"/>
<path d="M230.593 155.598H235.593V256.23H230.593V155.598Z" fill="#557BF2"/>
<path d="M250.527 227.71H255.527V256.23H250.527V227.71Z" fill="#557BF2"/>
<path d="M270.46 207.614H275.46V256.23H270.46V207.614Z" fill="#557BF2"/>
<path d="M290.393 212.49H295.393V256.23H290.393V212.49Z" fill="#557BF2"/>
<path d="M310.327 123.532H315.327V256.23H310.327V123.532Z" fill="#557BF2"/>
<path d="M330.26 195.644H335.26V256.23H330.26V195.644Z" fill="#557BF2"/>
<path d="M350.193 204.067H355.193V256.23H350.193V204.067Z" fill="#557BF2"/>
<path d="M370.127 176.877H375.127V256.23H370.127V176.877Z" fill="#557BF2"/>
<path d="M390.06 132.546H395.06V256.23H390.06V132.546Z" fill="#557BF2"/>
<path d="M409.993 180.867H414.993V256.23H409.993V180.867Z" fill="#557BF2"/>
<path d="M429.927 216.332H434.927V256.23H429.927V216.332Z" fill="#557BF2"/>
<path d="M449.86 136.388H454.86V256.23H449.86V136.388Z" fill="#557BF2"/>
<path d="M469.793 219.731H474.793V256.23H469.793V219.731Z" fill="#557BF2"/>
<path d="M489.727 132.398H494.727V256.23H489.727V132.398Z" fill="#557BF2"/>
<path d="M509.66 131.512H514.66V256.23H509.66V131.512Z" fill="#557BF2"/>
<path d="M529.593 205.249H534.593V256.23H529.593V205.249Z" fill="#557BF2"/>
<path d="M549.527 201.998H554.527V256.23H549.527V201.998Z" fill="#557BF2"/>
<path d="M569.46 145.106H574.46V256.23H569.46V145.106Z" fill="#557BF2"/>
<path d="M589.393 248.25H594.393V256.23H589.393V248.25Z" fill="#557BF2"/>
<path d="M609.327 231.552H614.327V256.23H609.327V231.552Z" fill="#557BF2"/>
<path d="M629.26 136.831H634.26V256.23H629.26V136.831Z" fill="#557BF2"/>
<path d="M649.193 212.194H654.193V256.23H649.193V212.194Z" fill="#557BF2"/>
<path d="M669.127 242.783H674.127V256.23H669.127V242.783Z" fill="#557BF2"/>
<path d="M689.06 252.388H694.06V256.23H689.06V252.388Z" fill="#557BF2"/>
<path d="M48.5781 44.9248H45.0938V54.4014H42.75V44.9248H39.3125V43.0264H48.5781V44.9248ZM51.9766 46.8701C52.5755 46.1514 53.3281 45.792 54.2344 45.792C56.0677 45.792 56.9974 46.8571 57.0234 48.9873V54.4014H54.7656V49.0498C54.7656 48.5654 54.6615 48.2087 54.4531 47.9795C54.2448 47.7451 53.8984 47.6279 53.4141 47.6279C52.7526 47.6279 52.2734 47.8831 51.9766 48.3936V54.4014H49.7188V42.4014H51.9766V46.8701ZM61.1094 54.4014H58.8438V45.9482H61.1094V54.4014ZM58.7109 43.7607C58.7109 43.4222 58.8229 43.1436 59.0469 42.9248C59.276 42.7061 59.5859 42.5967 59.9766 42.5967C60.362 42.5967 60.6693 42.7061 60.8984 42.9248C61.1276 43.1436 61.2422 43.4222 61.2422 43.7607C61.2422 44.1045 61.125 44.3857 60.8906 44.6045C60.6615 44.8232 60.3568 44.9326 59.9766 44.9326C59.5964 44.9326 59.2891 44.8232 59.0547 44.6045C58.8255 44.3857 58.7109 44.1045 58.7109 43.7607ZM67.5547 52.0654C67.5547 51.7894 67.4167 51.5732 67.1406 51.417C66.8698 51.2555 66.4323 51.1123 65.8281 50.9873C63.8177 50.5654 62.8125 49.7113 62.8125 48.4248C62.8125 47.6748 63.1224 47.0498 63.7422 46.5498C64.3672 46.0446 65.1823 45.792 66.1875 45.792C67.2604 45.792 68.1172 46.0446 68.7578 46.5498C69.4036 47.055 69.7266 47.7113 69.7266 48.5186H67.4688C67.4688 48.1956 67.3646 47.93 67.1562 47.7217C66.9479 47.5081 66.6224 47.4014 66.1797 47.4014C65.7995 47.4014 65.5052 47.4873 65.2969 47.6592C65.0885 47.8311 64.9844 48.0498 64.9844 48.3154C64.9844 48.5654 65.1016 48.7686 65.3359 48.9248C65.5755 49.0758 65.9766 49.2087 66.5391 49.3232C67.1016 49.4326 67.5755 49.5576 67.9609 49.6982C69.1536 50.1357 69.75 50.8936 69.75 51.9717C69.75 52.7425 69.4193 53.3675 68.7578 53.8467C68.0964 54.3206 67.2422 54.5576 66.1953 54.5576C65.487 54.5576 64.8568 54.4326 64.3047 54.1826C63.7578 53.9274 63.3281 53.5811 63.0156 53.1436C62.7031 52.7008 62.5469 52.2243 62.5469 51.7139H64.6875C64.7083 52.1149 64.8568 52.4222 65.1328 52.6357C65.4089 52.8493 65.7786 52.9561 66.2422 52.9561C66.6745 52.9561 67 52.8753 67.2188 52.7139C67.4427 52.5472 67.5547 52.3311 67.5547 52.0654ZM78.4062 43.0264L81.3281 51.2764L84.2344 43.0264H87.3125V54.4014H84.9609V51.292L85.1953 45.9248L82.125 54.4014H80.5156L77.4531 45.9326L77.6875 51.292V54.4014H75.3438V43.0264H78.4062ZM88.8594 50.0967C88.8594 49.2581 89.0208 48.5107 89.3438 47.8545C89.6667 47.1982 90.1302 46.6904 90.7344 46.3311C91.3438 45.9717 92.0495 45.792 92.8516 45.792C93.9922 45.792 94.9219 46.141 95.6406 46.8389C96.3646 47.5368 96.7682 48.4847 96.8516 49.6826L96.8672 50.2607C96.8672 51.5576 96.5052 52.5993 95.7812 53.3857C95.0573 54.167 94.0859 54.5576 92.8672 54.5576C91.6484 54.5576 90.6745 54.167 89.9453 53.3857C89.2214 52.6045 88.8594 51.542 88.8594 50.1982V50.0967ZM91.1172 50.2607C91.1172 51.0628 91.2682 51.6774 91.5703 52.1045C91.8724 52.5264 92.3047 52.7373 92.8672 52.7373C93.4141 52.7373 93.8411 52.529 94.1484 52.1123C94.4557 51.6904 94.6094 51.0186 94.6094 50.0967C94.6094 49.3102 94.4557 48.7008 94.1484 48.2686C93.8411 47.8363 93.4089 47.6201 92.8516 47.6201C92.2995 47.6201 91.8724 47.8363 91.5703 48.2686C91.2682 48.6956 91.1172 49.3597 91.1172 50.2607ZM100.336 45.9482L100.406 46.9248C101.01 46.1696 101.82 45.792 102.836 45.792C103.732 45.792 104.398 46.055 104.836 46.5811C105.273 47.1071 105.497 47.8936 105.508 48.9404V54.4014H103.25V48.9951C103.25 48.516 103.146 48.1696 102.938 47.9561C102.729 47.7373 102.383 47.6279 101.898 47.6279C101.263 47.6279 100.786 47.8988 100.469 48.4404V54.4014H98.2109V45.9482H100.336ZM109.93 43.8701V45.9482H111.375V47.6045H109.93V51.8232C109.93 52.1357 109.99 52.3597 110.109 52.4951C110.229 52.6305 110.458 52.6982 110.797 52.6982C111.047 52.6982 111.268 52.68 111.461 52.6436V54.3545C111.018 54.4899 110.562 54.5576 110.094 54.5576C108.51 54.5576 107.703 53.7581 107.672 52.1592V47.6045H106.438V45.9482H107.672V43.8701H109.93ZM114.836 46.8701C115.435 46.1514 116.188 45.792 117.094 45.792C118.927 45.792 119.857 46.8571 119.883 48.9873V54.4014H117.625V49.0498C117.625 48.5654 117.521 48.2087 117.312 47.9795C117.104 47.7451 116.758 47.6279 116.273 47.6279C115.612 47.6279 115.133 47.8831 114.836 48.3936V54.4014H112.578V42.4014H114.836V46.8701ZM128.211 54.4014H125.867V43.0264H128.211V54.4014ZM132.32 45.9482L132.391 46.9248C132.995 46.1696 133.805 45.792 134.82 45.792C135.716 45.792 136.383 46.055 136.82 46.5811C137.258 47.1071 137.482 47.8936 137.492 48.9404V54.4014H135.234V48.9951C135.234 48.516 135.13 48.1696 134.922 47.9561C134.714 47.7373 134.367 47.6279 133.883 47.6279C133.247 47.6279 132.771 47.8988 132.453 48.4404V54.4014H130.195V45.9482H132.32ZM142.727 52.7373C143.143 52.7373 143.482 52.6227 143.742 52.3936C144.003 52.1644 144.138 51.8597 144.148 51.4795H146.266C146.26 52.0524 146.104 52.5785 145.797 53.0576C145.49 53.5316 145.068 53.9014 144.531 54.167C144 54.4274 143.411 54.5576 142.766 54.5576C141.557 54.5576 140.604 54.1748 139.906 53.4092C139.208 52.6383 138.859 51.5758 138.859 50.2217V50.0732C138.859 48.7712 139.206 47.7321 139.898 46.9561C140.591 46.18 141.542 45.792 142.75 45.792C143.807 45.792 144.654 46.0941 145.289 46.6982C145.93 47.2972 146.255 48.0967 146.266 49.0967H144.148C144.138 48.6592 144.003 48.305 143.742 48.0342C143.482 47.7581 143.138 47.6201 142.711 47.6201C142.185 47.6201 141.786 47.8128 141.516 48.1982C141.25 48.5785 141.117 49.1982 141.117 50.0576V50.292C141.117 51.1618 141.25 51.7868 141.516 52.167C141.781 52.5472 142.185 52.7373 142.727 52.7373ZM147.203 50.0967C147.203 49.2581 147.365 48.5107 147.688 47.8545C148.01 47.1982 148.474 46.6904 149.078 46.3311C149.688 45.9717 150.393 45.792 151.195 45.792C152.336 45.792 153.266 46.141 153.984 46.8389C154.708 47.5368 155.112 48.4847 155.195 49.6826L155.211 50.2607C155.211 51.5576 154.849 52.5993 154.125 53.3857C153.401 54.167 152.43 54.5576 151.211 54.5576C149.992 54.5576 149.018 54.167 148.289 53.3857C147.565 52.6045 147.203 51.542 147.203 50.1982V50.0967ZM149.461 50.2607C149.461 51.0628 149.612 51.6774 149.914 52.1045C150.216 52.5264 150.648 52.7373 151.211 52.7373C151.758 52.7373 152.185 52.529 152.492 52.1123C152.799 51.6904 152.953 51.0186 152.953 50.0967C152.953 49.3102 152.799 48.7008 152.492 48.2686C152.185 47.8363 151.753 47.6201 151.195 47.6201C150.643 47.6201 150.216 47.8363 149.914 48.2686C149.612 48.6956 149.461 49.3597 149.461 50.2607ZM158.719 45.9482L158.789 46.8936C159.388 46.1592 160.198 45.792 161.219 45.792C162.307 45.792 163.055 46.2217 163.461 47.0811C164.055 46.2217 164.901 45.792 166 45.792C166.917 45.792 167.599 46.0602 168.047 46.5967C168.495 47.1279 168.719 47.93 168.719 49.0029V54.4014H166.453V49.0107C166.453 48.5316 166.359 48.1826 166.172 47.9639C165.984 47.7399 165.654 47.6279 165.18 47.6279C164.503 47.6279 164.034 47.9508 163.773 48.5967L163.781 54.4014H161.523V49.0186C161.523 48.529 161.427 48.1748 161.234 47.9561C161.042 47.7373 160.714 47.6279 160.25 47.6279C159.609 47.6279 159.146 47.8936 158.859 48.4248V54.4014H156.602V45.9482H158.719ZM174.352 54.5576C173.112 54.5576 172.102 54.1774 171.32 53.417C170.544 52.6566 170.156 51.6436 170.156 50.3779V50.1592C170.156 49.3102 170.32 48.5524 170.648 47.8857C170.977 47.2139 171.44 46.6982 172.039 46.3389C172.643 45.9743 173.331 45.792 174.102 45.792C175.258 45.792 176.167 46.1566 176.828 46.8857C177.495 47.6149 177.828 48.6488 177.828 49.9873V50.9092H172.445C172.518 51.4613 172.737 51.904 173.102 52.2373C173.471 52.5706 173.938 52.7373 174.5 52.7373C175.37 52.7373 176.049 52.4222 176.539 51.792L177.648 53.0342C177.31 53.5133 176.852 53.8883 176.273 54.1592C175.695 54.4248 175.055 54.5576 174.352 54.5576ZM174.094 47.6201C173.646 47.6201 173.281 47.7712 173 48.0732C172.724 48.3753 172.547 48.8076 172.469 49.3701H175.609V49.1904C175.599 48.6904 175.464 48.305 175.203 48.0342C174.943 47.7581 174.573 47.6201 174.094 47.6201ZM187.492 50.4404H183.094V48.6201H187.492V50.4404ZM200.281 49.4717H195.781V52.5186H201.062V54.4014H193.438V43.0264H201.047V44.9248H195.781V47.6357H200.281V49.4717ZM205.508 48.4717L206.93 45.9482H209.344L206.938 50.0889L209.445 54.4014H207.023L205.516 51.7451L204.016 54.4014H201.586L204.094 50.0889L201.695 45.9482H204.117L205.508 48.4717ZM218.039 50.2529C218.039 51.555 217.742 52.5993 217.148 53.3857C216.56 54.167 215.763 54.5576 214.758 54.5576C213.904 54.5576 213.214 54.2607 212.688 53.667V57.6514H210.43V45.9482H212.523L212.602 46.7764C213.148 46.1201 213.862 45.792 214.742 45.792C215.784 45.792 216.594 46.1774 217.172 46.9482C217.75 47.7191 218.039 48.7816 218.039 50.1357V50.2529ZM215.781 50.0889C215.781 49.3024 215.641 48.6956 215.359 48.2686C215.083 47.8415 214.68 47.6279 214.148 47.6279C213.44 47.6279 212.953 47.8988 212.688 48.4404V51.9014C212.964 52.4587 213.456 52.7373 214.164 52.7373C215.242 52.7373 215.781 51.8545 215.781 50.0889ZM223.336 54.5576C222.096 54.5576 221.086 54.1774 220.305 53.417C219.529 52.6566 219.141 51.6436 219.141 50.3779V50.1592C219.141 49.3102 219.305 48.5524 219.633 47.8857C219.961 47.2139 220.424 46.6982 221.023 46.3389C221.628 45.9743 222.315 45.792 223.086 45.792C224.242 45.792 225.151 46.1566 225.812 46.8857C226.479 47.6149 226.812 48.6488 226.812 49.9873V50.9092H221.43C221.503 51.4613 221.721 51.904 222.086 52.2373C222.456 52.5706 222.922 52.7373 223.484 52.7373C224.354 52.7373 225.034 52.4222 225.523 51.792L226.633 53.0342C226.294 53.5133 225.836 53.8883 225.258 54.1592C224.68 54.4248 224.039 54.5576 223.336 54.5576ZM223.078 47.6201C222.63 47.6201 222.266 47.7712 221.984 48.0732C221.708 48.3753 221.531 48.8076 221.453 49.3701H224.594V49.1904C224.583 48.6904 224.448 48.305 224.188 48.0342C223.927 47.7581 223.557 47.6201 223.078 47.6201ZM230.18 45.9482L230.25 46.9248C230.854 46.1696 231.664 45.792 232.68 45.792C233.576 45.792 234.242 46.055 234.68 46.5811C235.117 47.1071 235.341 47.8936 235.352 48.9404V54.4014H233.094V48.9951C233.094 48.516 232.99 48.1696 232.781 47.9561C232.573 47.7373 232.227 47.6279 231.742 47.6279C231.107 47.6279 230.63 47.8988 230.312 48.4404V54.4014H228.055V45.9482H230.18ZM241.648 52.0654C241.648 51.7894 241.51 51.5732 241.234 51.417C240.964 51.2555 240.526 51.1123 239.922 50.9873C237.911 50.5654 236.906 49.7113 236.906 48.4248C236.906 47.6748 237.216 47.0498 237.836 46.5498C238.461 46.0446 239.276 45.792 240.281 45.792C241.354 45.792 242.211 46.0446 242.852 46.5498C243.497 47.055 243.82 47.7113 243.82 48.5186H241.562C241.562 48.1956 241.458 47.93 241.25 47.7217C241.042 47.5081 240.716 47.4014 240.273 47.4014C239.893 47.4014 239.599 47.4873 239.391 47.6592C239.182 47.8311 239.078 48.0498 239.078 48.3154C239.078 48.5654 239.195 48.7686 239.43 48.9248C239.669 49.0758 240.07 49.2087 240.633 49.3232C241.195 49.4326 241.669 49.5576 242.055 49.6982C243.247 50.1357 243.844 50.8936 243.844 51.9717C243.844 52.7425 243.513 53.3675 242.852 53.8467C242.19 54.3206 241.336 54.5576 240.289 54.5576C239.581 54.5576 238.951 54.4326 238.398 54.1826C237.852 53.9274 237.422 53.5811 237.109 53.1436C236.797 52.7008 236.641 52.2243 236.641 51.7139H238.781C238.802 52.1149 238.951 52.4222 239.227 52.6357C239.503 52.8493 239.872 52.9561 240.336 52.9561C240.768 52.9561 241.094 52.8753 241.312 52.7139C241.536 52.5472 241.648 52.3311 241.648 52.0654ZM249.195 54.5576C247.956 54.5576 246.945 54.1774 246.164 53.417C245.388 52.6566 245 51.6436 245 50.3779V50.1592C245 49.3102 245.164 48.5524 245.492 47.8857C245.82 47.2139 246.284 46.6982 246.883 46.3389C247.487 45.9743 248.174 45.792 248.945 45.792C250.102 45.792 251.01 46.1566 251.672 46.8857C252.339 47.6149 252.672 48.6488 252.672 49.9873V50.9092H247.289C247.362 51.4613 247.581 51.904 247.945 52.2373C248.315 52.5706 248.781 52.7373 249.344 52.7373C250.214 52.7373 250.893 52.4222 251.383 51.792L252.492 53.0342C252.154 53.5133 251.695 53.8883 251.117 54.1592C250.539 54.4248 249.898 54.5576 249.195 54.5576ZM248.938 47.6201C248.49 47.6201 248.125 47.7712 247.844 48.0732C247.568 48.3753 247.391 48.8076 247.312 49.3701H250.453V49.1904C250.443 48.6904 250.307 48.305 250.047 48.0342C249.786 47.7581 249.417 47.6201 248.938 47.6201Z" fill="black" fill-opacity="0.6"/>
<defs>
<filter id="filter0_d" x="0" y="0" width="767" height="322" filterUnits="userSpaceOnUse" color-interpolation-filters="sRGB">
<feFlood flood-opacity="0" result="BackgroundImageFix"/>
<feColorMatrix in="SourceAlpha" type="matrix" values="0 0 0 0 0 0 0 0 0 0 0 0 0 0 0 0 0 0 127 0"/>
<feOffset/>
<feGaussianBlur stdDeviation="8"/>
<feColorMatrix type="matrix" values="0 0 0 0 0 0 0 0 0 0 0 0 0 0 0 0 0 0 0.05 0"/>
<feBlend mode="normal" in2="BackgroundImageFix" result="effect1_dropShadow"/>
<feBlend mode="normal" in="SourceGraphic" in2="effect1_dropShadow" result="shape"/>
</filter>
</defs>
</svg>
