<svg width="24" height="24" viewBox="0 0 24 24" fill="none" xmlns="http://www.w3.org/2000/svg">
<path d="M21 2H3C1.34602 2 0 3.34602 0 5V8.99998C0 10.654 1.34602 12 3 12H5.00002V21C5.00002 21.553 5.448 22 6 22H18C18.553 22 19 21.553 19 21V12H21C22.654 12 24 10.654 24 8.99998V5C24 3.34597 22.654 2 21 2ZM17 20H6.99998V8H17V20H17ZM22 8.99998C22 9.551 21.552 9.99997 21 9.99997H19V7.99995H20C20.553 7.99995 21 7.55197 21 6.99997C21 6.44797 20.553 5.99998 20 5.99998H18H6H3.99998C3.44798 5.99998 3 6.44797 3 6.99997C3 7.55197 3.44798 7.99995 3.99998 7.99995H4.99997V9.99997H3C2.44898 9.99997 2.00002 9.55095 2.00002 8.99998V5C2.00002 4.44898 2.44903 4.00002 3 4.00002H21C21.552 4.00002 22 4.44903 22 5V8.99998Z" fill="black" fill-opacity="0.3"/>
<path d="M12.4 13.0999V11.6099C12.724 11.6939 13.034 11.8249 13.32 11.9999C13.379 12.0119 13.441 12.0119 13.5 11.9999C13.776 12.0049 14.005 11.7859 14.01 11.5099C14.008 11.4139 13.973 11.3219 13.91 11.2499C13.495 10.8709 12.961 10.6479 12.4 10.6199V10.0899C12.395 9.90091 12.239 9.74993 12.05 9.74993C12.046 9.74993 12.043 9.74993 12.039 9.74993C11.846 9.74393 11.685 9.89693 11.68 10.0899V10.6099C10.704 10.5809 9.88399 11.3349 9.82999 12.3099C9.82999 13.4599 10.78 13.7799 11.68 14.0099V15.6899C11.26 15.6309 10.863 15.4619 10.53 15.1999C10.447 15.1359 10.345 15.1009 10.24 15.0999C9.97202 15.111 9.76001 15.3309 9.76001 15.6C9.76001 15.699 9.79601 15.795 9.85999 15.87C10.353 16.335 11.002 16.599 11.68 16.61V17.11C11.68 17.114 11.68 17.117 11.68 17.121C11.692 17.314 11.857 17.461 12.05 17.45C12.239 17.45 12.395 17.299 12.4 17.11V16.61C13.7 16.49 14.25 15.72 14.29 14.86C14.29 13.6899 13.3 13.3399 12.4 13.0999ZM11.68 12.8799C11.22 12.7499 10.89 12.6299 10.89 12.2399C10.89 11.8499 11.2 11.5799 11.68 11.5299V12.8799ZM12.4 15.6899V14.2099V14.1999C12.87 14.34 13.22 14.5999 13.22 14.9299C13.22 15.2599 12.99 15.5999 12.4 15.6899Z" fill="black" fill-opacity="0.3"/>
</svg>
